<?xml version="1.0" standalone="no"?>
<!DOCTYPE svg PUBLIC "-//W3C//DTD SVG 1.1//EN" "http://www.w3.org/Graphics/SVG/1.1/DTD/svg11.dtd">
<svg xmlns="http://www.w3.org/2000/svg"><metadata>This SVG WebFont was generated by YouWorkForThem.
Copyright (c) 2014 by Yellow Design Studio. All rights reserved.</metadata><defs><font horiz-adv-x="2168" id="ywftsvg"><font-face ascent="1638" bbox="-141 -645 3113 2398" cap-height="1597" descent="-410" font-family="Lulo Clean One" font-stretch="normal" font-weight="700" panose-1="2 1 8 4 2 2 0 0 0 3" underline-position="0" underline-thickness="0" unicode-range="U+0020-U+F8FF" units-per-em="2048" x-height="1597"/><missing-glyph horiz-adv-x="624"/><glyph glyph-name=".notdef" horiz-adv-x="624"/><glyph glyph-name="glyph1" horiz-adv-x="0"/><glyph glyph-name="glyph2" horiz-adv-x="681"/><glyph glyph-name="space" horiz-adv-x="1046" unicode=" "/><glyph d="M102 1597h457l-92 -1015h-272zM72 223.5q0 106.5 75.5 182t182 75.5t182.5 -75.5t76 -182t-76 -182.5t-182.5 -76t-182 76t-75.5 182.5z" glyph-name="exclam" horiz-adv-x="1132" unicode="!"/><glyph d="M428 885h-274l-62 712h397zM905 885h-274l-62 712h398z" glyph-name="quotedbl" horiz-adv-x="1529" unicode="&quot;"/><glyph d="M180 913v353h262l60 331h338l-60 -331h209l60 331h337l-59 -331h203v-353h-264l-39 -231h203v-350h-265l-57 -332h-338l57 332h-209l-57 -332h-338l58 332h-201v350h262l39 231h-201zM719 913l-39 -231h209l39 231h-209z" glyph-name="numbersign" horiz-adv-x="2080" unicode="#"/><glyph d="M618 1149q-104 0 -104 -55q0 -47 180 -119t275 -141q182 -133 182 -318q0 -139 -97.5 -239.5t-258.5 -137.5v-190h-365v198q-162 45 -256 153t-94 263v12h399v-2q0 -49 36 -86.5t124 -37.5t88 57q1 36 -117 92l-76 35q-75 35 -78 37l-61 30q-57 29 -74.5 42.5t-57.5 40 t-45 31.5l-44 52q-41 47 -62.5 105.5t-21.5 113.5q0 131 93 230.5t247 138.5v195h365v-199q156 -45 248 -153.5t92 -262.5v-12h-400v2q0 49 -31.5 87t-85.5 38z" glyph-name="dollar" horiz-adv-x="1701" unicode="$"/><glyph d="M72 1179.5q0 186.5 131 317.5t316 131t317.5 -131t132.5 -316t-131.5 -316.5t-317.5 -131.5t-317 130t-131 316.5zM414 1180q0 -45 30.5 -76t75.5 -31t77 31t32 76t-32 76.5t-77 31.5t-75.5 -31.5t-30.5 -76.5zM1268 409.5q0 186.5 131 317.5t316 131t317.5 -131 t132.5 -316t-131.5 -316.5t-317.5 -131.5t-317 130t-131 316.5zM1610 410q0 -45 30.5 -76t75.5 -31t77 31t32 76t-32 76.5t-77 31.5t-75.5 -31.5t-30.5 -76.5zM768 0h-444l1151 1597h444z" glyph-name="percent" horiz-adv-x="2705" unicode="%"/><glyph d="M49 420q0 143 86 240.5t248 189.5q-125 168 -125 342t144 305t342 131t339.5 -126t141.5 -304q0 -229 -279 -393l172 -187q141 115 240 213l289 -276q-133 -129 -258 -229l301 -326h-523l-100 109q-255 -139 -495 -139t-381.5 131.5t-141.5 318.5zM600 344q72 0 193 57 l-201 217q-135 -86 -135 -167q0 -47 35.5 -77t107.5 -30zM639 1177q0 -46 86 -139q137 84 137 152q0 41 -33.5 67.5t-77.5 26.5t-78 -30.5t-34 -76.5z" glyph-name="ampersand" horiz-adv-x="2148" unicode="&amp;"/><glyph d="M428 885h-274l-62 712h397z" glyph-name="quotesingle" horiz-adv-x="1052" unicode="'"/><glyph d="M465 800q0 -316 114.5 -564t286.5 -386l-252 -311q-242 199 -403.5 524.5t-161.5 735t160.5 735t404.5 526.5l252 -313q-172 -135 -286.5 -383t-114.5 -564z" glyph-name="parenleft" horiz-adv-x="1359" unicode="("/><glyph d="M424 800q0 316 -114.5 564t-286.5 385l251 311q242 -199 404 -524.5t162 -735t-161 -735t-405 -526.5l-251 314q172 135 286.5 383t114.5 564z" glyph-name="parenright" horiz-adv-x="1359" unicode=")"/><glyph d="M756 1597l-51 -235l202 115l123 -379l-235 -23l170 -153l-322 -234l-96 217l-94 -213l-320 236l178 159l-235 25l125 377l205 -121l-48 229h398z" glyph-name="asterisk" horiz-adv-x="1574" unicode="*"/><glyph d="M375 1221h373v-287h290v-371h-290v-289h-373v289h-291v371h291v287z" glyph-name="plus" horiz-adv-x="1593" unicode="+"/><glyph d="M72 223q0 106 75.5 182t182 76t181.5 -75.5t75 -202.5q0 -217 -375 -565l-160 155q111 119 152 197l-29 26q-29 25 -47 47.5t-36.5 66.5t-18.5 93z" glyph-name="comma" horiz-adv-x="1132" unicode=","/><glyph d="M737 858v-383h-620v383h620z" glyph-name="hyphen" horiz-adv-x="1325" unicode="-"/><glyph d="M70 223.5q0 106.5 75.5 182t182 75.5t182.5 -75.5t76 -182t-76 -182.5t-182.5 -76t-182 76t-75.5 182.5z" glyph-name="period" horiz-adv-x="1126" unicode="."/><glyph d="M1231 1962h442l-1190 -2327h-438z" glyph-name="slash" horiz-adv-x="2189" unicode="/"/><glyph d="M63 798q0 163 43.5 310t125 264t211.5 186.5t292 69.5q213 0 371 -119.5t232.5 -305t74.5 -404.5t-74.5 -404.5t-232.5 -305.5t-371 -120q-162 0 -292 68.5t-211.5 185.5t-125 264.5t-43.5 310.5zM471 798.5q0 -198.5 73.5 -316t190.5 -117.5t193 117.5t76 316t-76 315.5 t-193 117t-190.5 -117t-73.5 -315.5z" glyph-name="zero" horiz-adv-x="1947" unicode="0"/><glyph d="M688 1597v-1597h-407v1126l-218 -75v426l351 120h274z" glyph-name="one" horiz-adv-x="1275" unicode="1"/><glyph d="M1231 408v-408h-1157v309l565 522q111 102 149.5 153.5t38.5 111.5t-40.5 97.5t-116.5 37.5t-126 -47t-50 -133v-47h-400v47q0 141 52.5 255.5t184.5 218t357 103.5t389 -145.5t164 -381.5t-213 -458l-117 -113l-135 -122h455z" glyph-name="two" horiz-adv-x="1798" unicode="2"/><glyph d="M594 365q201 0 201 129q0 150 -385 149v332q356 0 356 158q0 47 -40 83.5t-104 36.5t-111.5 -26.5t-47.5 -91.5v-9h-387v41q0 211 162.5 336t381.5 125t385 -123t166 -321q0 -227 -196 -363q242 -125 242 -354t-176.5 -363.5t-447.5 -134.5t-552 158l221 336 q186 -98 332 -98z" glyph-name="three" horiz-adv-x="1753" unicode="3"/><glyph d="M1157 0h-395v274h-729v318l561 1005h455l-533 -940h246v301h395v-301h156v-383h-156v-274z" glyph-name="four" horiz-adv-x="1839" unicode="4"/><glyph d="M1163 1597v-411h-596l-18 -156q78 35 205 35q223 0 371.5 -151.5t148.5 -387.5t-177 -396.5t-442 -160.5q-203 0 -363.5 98.5t-256.5 251.5l348 203q117 -154 270 -153q94 0 149.5 48.5t55.5 116.5t-39 118t-123 50q-121 0 -239 -118l-346 159l153 854h899z" glyph-name="five" horiz-adv-x="1806" unicode="5"/><glyph d="M1274 568q0 -244 -176 -421.5t-431 -177.5t-434.5 177.5t-179.5 424.5q0 184 133 392l406 634h493l-325 -491q221 -8 367.5 -151t146.5 -387zM453 571q0 -79 60.5 -140.5t150.5 -61.5t150 61.5t60 149.5t-61 149.5t-152 61.5t-165 -84q-43 -57 -43 -136z" glyph-name="six" horiz-adv-x="1802" unicode="6"/><glyph d="M66 1188v409h1091v-329l-625 -1268h-462l620 1188h-624z" glyph-name="seven" horiz-adv-x="1662" unicode="7"/><glyph d="M61 473q0 250 211 373q-147 110 -147 316t167 336t402 130t403.5 -131t168.5 -334t-152 -317q213 -125 213 -373q0 -221 -185.5 -362.5t-447.5 -141.5t-447.5 141.5t-185.5 362.5zM479 509q0 -73 59.5 -127t156.5 -54t155.5 54t58.5 126t-58.5 126t-156.5 54t-156.5 -53 t-58.5 -126zM530 1139q0 -59 44 -104.5t122 -45.5t121 44.5t43 104.5t-44 103t-121 43t-121 -43t-44 -102z" glyph-name="eight" horiz-adv-x="1859" unicode="8"/><glyph d="M57 1030q0 244 176.5 421t431.5 177t434 -177t179 -425q0 -184 -133 -391l-406 -635h-493l325 492q-221 8 -367.5 151t-146.5 387zM879 1027q0 79 -61.5 140.5t-150.5 61.5t-149.5 -61.5t-60.5 -149.5t61.5 -149.5t152.5 -61.5t165 84q43 57 43 136z" glyph-name="nine" horiz-adv-x="1802" unicode="9"/><glyph d="M100 223.5q0 106.5 76 182t182.5 75.5t182 -75.5t75.5 -182t-75.5 -182.5t-182 -76t-182.5 76t-76 182.5zM100 907.5q0 106.5 76 182t182.5 75.5t182 -75.5t75.5 -182t-75.5 -182.5t-182 -76t-182.5 76t-76 182.5z" glyph-name="colon" horiz-adv-x="1187" unicode=":"/><glyph d="M102 223q0 106 76 182t182.5 76t181 -75.5t74.5 -202.5q1 -217 -374 -565l-160 155q111 119 151 197l-28 26q-29 25 -47.5 47.5t-37 66.5t-18.5 93zM98 907.5q0 106.5 76 182t182.5 75.5t182 -75.5t75.5 -182t-75.5 -182.5t-182 -76t-182.5 76t-76 182.5z" glyph-name="semicolon" horiz-adv-x="1189" unicode=";"/><glyph d="M76 571v355l989 465v-435l-508 -206l508 -209v-432z" glyph-name="less" horiz-adv-x="1669" unicode="&lt;"/><glyph d="M117 795v372h954v-372h-954zM117 334v371h954v-371h-954z" glyph-name="equal" horiz-adv-x="1658" unicode="="/><glyph d="M1122 928v-355l-989 -464v434l508 207l-508 208v433z" glyph-name="greater" horiz-adv-x="1669" unicode=">"/><glyph d="M727 567h-350v66q0 92 42 171t84 116.5t103 83.5t85 75t24 68t-26.5 68.5t-80.5 29.5t-94.5 -40t-40.5 -122v-18h-399v68q0 121 50 218t174.5 187t330.5 90q205 0 352 -130t147 -341q0 -238 -229 -393l-74 -50q-74 -50 -86 -83t-12 -60v-4zM297 223.5q0 106.5 76 182 t182.5 75.5t182 -75.5t75.5 -182t-75.5 -182.5t-182 -76t-182.5 76t-76 182.5z" glyph-name="question" horiz-adv-x="1681" unicode="?"/><glyph d="M565 774q0 172 136.5 304t308.5 132t281.5 -112t109.5 -258t-76 -258q31 -33 80 -33q72 0 123 76.5t51 208.5q0 231 -155.5 391.5t-403.5 160.5t-439.5 -188t-191.5 -434t155.5 -403.5t387.5 -157.5q127 0 219 37l147 -248q-201 -88 -395 -88q-350 0 -587.5 238.5 t-237.5 582.5q0 260 135 485.5t362.5 355.5t487.5 130q350 0 587.5 -244t237.5 -596q0 -272 -145 -438t-341 -166t-310 151q-68 -25 -146 -24q-162 0 -271.5 111.5t-109.5 283.5zM870 789q0 -48 29 -78.5t77 -30.5t85 36t37 84t-31 78.5t-79 30.5t-83 -36t-35 -84z" glyph-name="at" horiz-adv-x="2437" unicode="@"/><glyph d="M647 1597h406l645 -1597h-447l-88 233h-628l-89 -233h-446zM1024 604l-174 469l-176 -469h350z" glyph-name="A" unicode="A"/><glyph d="M123 0v1597h795q250 0 384 -120.5t134 -319.5q0 -229 -195 -336q266 -100 266 -370q0 -201 -140 -326t-380 -125h-864zM942 651h-410v-280h410q152 0 152 143q0 137 -152 137zM893 1225h-361v-254h338q152 0 152 127q0 59 -33 93t-96 34z" glyph-name="B" horiz-adv-x="2031" unicode="B"/><glyph d="M895 -31q-346 0 -597 244t-251 586t251 585.5t597 243.5q244 0 445.5 -125t310.5 -329l-373 -168q-55 102 -157.5 164.5t-225.5 62.5q-180 0 -307 -127t-127 -307.5t127 -307t307 -126.5q125 0 226.5 61.5t156.5 165.5l375 -164q-106 -207 -310 -333t-448 -126z" glyph-name="C" horiz-adv-x="2144" unicode="C"/><glyph d="M123 0v1597h741q242 0 416 -110.5t257 -288.5t83 -400t-83 -400.5t-257 -288t-416 -109.5h-741zM834 1200h-302v-805h302q178 0 275 109.5t97 294t-97 293t-275 108.5z" glyph-name="D" horiz-adv-x="2146" unicode="D"/><glyph d="M123 0v1597h1227v-397h-818v-229h672v-371h-672v-205h818v-395h-1227z" glyph-name="E" horiz-adv-x="1896" unicode="E"/><glyph d="M123 0v1597h1186v-397h-779v-282h654v-371h-654v-547h-407z" glyph-name="F" horiz-adv-x="1832" unicode="F"/><glyph d="M850 592v340h770v-932h-322v150q-57 -86 -166.5 -133.5t-236.5 -47.5q-348 0 -598 244t-250 586t250 585.5t598 243.5q203 0 381 -90t295 -244l-334 -225q-131 164 -327 164t-322.5 -127t-126.5 -307.5t126 -307t308 -126.5q217 0 342 182v45h-387z" glyph-name="G" horiz-adv-x="2174" unicode="G"/><glyph d="M1182 1597h409v-1597h-409v594h-652v-594h-407v1597h407v-620h652v620z" glyph-name="H" horiz-adv-x="2185" unicode="H"/><glyph d="M123 1597h409v-1597h-409v1597z" glyph-name="I" horiz-adv-x="1126" unicode="I"/><glyph d="M846 1597h407v-1005q0 -305 -171 -464t-433 -159t-439 160t-177 463v139h409v-133q0 -233 203 -233q98 0 149.5 50t51.5 183v999z" glyph-name="J" horiz-adv-x="1832" unicode="J"/><glyph d="M123 0v1597h409v-550l496 550h528l-630 -686l663 -911h-508l-440 602l-109 -121v-481h-409z" glyph-name="K" horiz-adv-x="2043" unicode="K"/><glyph d="M123 0v1597h407v-1202h766v-395h-1173z" glyph-name="L" horiz-adv-x="1794" unicode="L"/><glyph d="M530 0h-407v1597h412l460 -1009l463 1009h412v-1597h-408v752l-332 -691h-268l-332 691v-752z" glyph-name="M" horiz-adv-x="2463" unicode="M"/><glyph d="M532 0h-409v1597h348l713 -892v892h407v-1597h-346l-713 891v-891z" glyph-name="N" horiz-adv-x="2185" unicode="N"/><glyph d="M47 799q0 342 251 585.5t599 243.5t597 -243.5t249 -585.5t-249 -586t-597 -244t-599 244t-251 586zM461 798.5q0 -180.5 127 -307t309 -126.5t307 125.5t125 308t-125 308.5t-307 126t-309 -127t-127 -307.5z" glyph-name="O" horiz-adv-x="2260" unicode="O"/><glyph d="M123 0v1597h704q301 0 464 -177t163 -440t-162 -440.5t-465 -177.5h-295v-362h-409zM805 1225h-273v-490h273q236 0 235 248q0 104 -57 173t-178 69z" glyph-name="P" horiz-adv-x="1959" unicode="P"/><glyph d="M47 799q0 342 251 585.5t599 243.5t597 -243.5t249 -585.5q0 -223 -112.5 -412.5t-301.5 -300.5q127 -88 214 -88t134 72l310 -250q-80 -111 -203 -164t-239 -53t-225.5 47t-264 165.5t-299.5 166.5q-301 47 -505 279.5t-204 537.5zM461 798.5q0 -180.5 127 -307 t309 -126.5t307 125.5t125 308t-125 308.5t-307 126t-309 -127t-127 -307.5z" glyph-name="Q" horiz-adv-x="2263" unicode="Q"/><glyph d="M123 1597h780q293 0 445.5 -164.5t152.5 -418.5q0 -174 -80 -316.5t-235 -214.5l346 -483h-490l-303 428h-209v-428h-407v1597zM881 1225h-351v-426h351q115 0 170 59.5t55 151.5q0 215 -225 215z" glyph-name="R" horiz-adv-x="2039" unicode="R"/><glyph d="M718 324q214 0 214 102q0 45 -60.5 82t-184.5 79t-188.5 66.5t-153.5 72.5t-142 100.5t-92 132t-39 174.5q0 225 174 360t454 135t465 -141t185 -375v-22h-400v14q0 66 -64.5 118t-170.5 52t-155.5 -32t-49.5 -77t56 -76.5t166 -70.5l148 -54q148 -54 253.5 -121.5 t172 -166.5t66.5 -232q0 -227 -176 -351t-466 -124t-480.5 131t-190.5 361v18h400v-10q0 -53 70.5 -99t188.5 -46z" glyph-name="S" horiz-adv-x="1902" unicode="S"/><glyph d="M25 1200v397h1405v-397h-498v-1200h-410v1200h-497z" glyph-name="T" horiz-adv-x="1925" unicode="T"/><glyph d="M1161 1597h408v-899q0 -319 -194.5 -524t-541.5 -205t-540 204t-193 525v899h410v-874q0 -174 82 -266t241.5 -92t243.5 92t84 266v874z" glyph-name="U" horiz-adv-x="2140" unicode="U"/><glyph d="M1051 0h-406l-645 1597h446l402 -1073l403 1073h447z" glyph-name="V" unicode="V"/><glyph d="M870 0h-424l-448 1597h436l258 -952l299 952h365l299 -950l258 950h438l-448 -1597h-424l-305 928z" glyph-name="W" horiz-adv-x="2820" unicode="W"/><glyph d="M1085 1597h484l-537 -794l549 -803h-498l-297 438l-294 -438h-498l549 803l-537 794h483l297 -436z" glyph-name="X" horiz-adv-x="2043" unicode="X"/><glyph d="M1038 0h-407v586l-631 1011h481l353 -579l354 579h483l-633 -1011v-586z" glyph-name="Y" horiz-adv-x="2142" unicode="Y"/><glyph d="M88 1200v397h1329v-299l-745 -903h747v-395h-1356v299l744 901h-719z" glyph-name="Z" horiz-adv-x="1964" unicode="Z"/><glyph d="M739 -61v-383h-620v2488h620v-385h-213v-1720h213z" glyph-name="bracketleft" horiz-adv-x="1280" unicode="["/><glyph d="M43 1962h442l1186 -2327h-438z" glyph-name="backslash" horiz-adv-x="2187" unicode="\"/><glyph d="M70 1659v383h620v-2488h-620v385h213v1720h-213z" glyph-name="bracketright" horiz-adv-x="1280" unicode="]"/><glyph d="M537 1597h354l465 -948h-434l-207 465l-209 -465h-432z" glyph-name="asciicircum" horiz-adv-x="1900" unicode="^"/><glyph d="M1350 -45v-352h-1252v352h1252z" glyph-name="underscore" horiz-adv-x="1918" unicode="_"/><glyph d="M731 1913l-137 -238l-594 273l199 344z" glyph-name="grave" horiz-adv-x="1202" unicode="`"/><glyph d="M647 1597h406l645 -1597h-447l-88 233h-628l-89 -233h-446zM1024 604l-174 469l-176 -469h350z" glyph-name="a" unicode="a"/><glyph d="M123 0v1597h795q250 0 384 -120.5t134 -319.5q0 -229 -195 -336q266 -100 266 -370q0 -201 -140 -326t-380 -125h-864zM942 651h-410v-280h410q152 0 152 143q0 137 -152 137zM893 1225h-361v-254h338q152 0 152 127q0 59 -33 93t-96 34z" glyph-name="b" horiz-adv-x="2031" unicode="b"/><glyph d="M895 -31q-346 0 -597 244t-251 586t251 585.5t597 243.5q244 0 445.5 -125t310.5 -329l-373 -168q-55 102 -157.5 164.5t-225.5 62.5q-180 0 -307 -127t-127 -307.5t127 -307t307 -126.5q125 0 226.5 61.5t156.5 165.5l375 -164q-106 -207 -310 -333t-448 -126z" glyph-name="c" horiz-adv-x="2144" unicode="c"/><glyph d="M123 0v1597h741q242 0 416 -110.5t257 -288.5t83 -400t-83 -400.5t-257 -288t-416 -109.5h-741zM834 1200h-302v-805h302q178 0 275 109.5t97 294t-97 293t-275 108.5z" glyph-name="d" horiz-adv-x="2146" unicode="d"/><glyph d="M123 0v1597h1227v-397h-818v-229h672v-371h-672v-205h818v-395h-1227z" glyph-name="e" horiz-adv-x="1896" unicode="e"/><glyph d="M123 0v1597h1186v-397h-779v-282h654v-371h-654v-547h-407z" glyph-name="f" horiz-adv-x="1832" unicode="f"/><glyph d="M850 592v340h770v-932h-322v150q-57 -86 -166.5 -133.5t-236.5 -47.5q-348 0 -598 244t-250 586t250 585.5t598 243.5q203 0 381 -90t295 -244l-334 -225q-131 164 -327 164t-322.5 -127t-126.5 -307.5t126 -307t308 -126.5q217 0 342 182v45h-387z" glyph-name="g" horiz-adv-x="2174" unicode="g"/><glyph d="M1182 1597h409v-1597h-409v594h-652v-594h-407v1597h407v-620h652v620z" glyph-name="h" horiz-adv-x="2185" unicode="h"/><glyph d="M123 1597h409v-1597h-409v1597z" glyph-name="i" horiz-adv-x="1126" unicode="i"/><glyph d="M846 1597h407v-1005q0 -305 -171 -464t-433 -159t-439 160t-177 463v139h409v-133q0 -233 203 -233q98 0 149.5 50t51.5 183v999z" glyph-name="j" horiz-adv-x="1832" unicode="j"/><glyph d="M123 0v1597h409v-550l496 550h528l-630 -686l663 -911h-508l-440 602l-109 -121v-481h-409z" glyph-name="k" horiz-adv-x="2043" unicode="k"/><glyph d="M123 0v1597h407v-1202h766v-395h-1173z" glyph-name="l" horiz-adv-x="1794" unicode="l"/><glyph d="M530 0h-407v1597h412l460 -1009l463 1009h412v-1597h-408v752l-332 -691h-268l-332 691v-752z" glyph-name="m" horiz-adv-x="2463" unicode="m"/><glyph d="M532 0h-409v1597h348l713 -892v892h407v-1597h-346l-713 891v-891z" glyph-name="n" horiz-adv-x="2185" unicode="n"/><glyph d="M47 799q0 342 251 585.5t599 243.5t597 -243.5t249 -585.5t-249 -586t-597 -244t-599 244t-251 586zM461 798.5q0 -180.5 127 -307t309 -126.5t307 125.5t125 308t-125 308.5t-307 126t-309 -127t-127 -307.5z" glyph-name="o" horiz-adv-x="2260" unicode="o"/><glyph d="M123 0v1597h704q301 0 464 -177t163 -440t-162 -440.5t-465 -177.5h-295v-362h-409zM805 1225h-273v-490h273q236 0 235 248q0 104 -57 173t-178 69z" glyph-name="p" horiz-adv-x="1959" unicode="p"/><glyph d="M47 799q0 342 251 585.5t599 243.5t597 -243.5t249 -585.5q0 -223 -112.5 -412.5t-301.5 -300.5q127 -88 214 -88t134 72l310 -250q-80 -111 -203 -164t-239 -53t-225.5 47t-264 165.5t-299.5 166.5q-301 47 -505 279.5t-204 537.5zM461 798.5q0 -180.5 127 -307 t309 -126.5t307 125.5t125 308t-125 308.5t-307 126t-309 -127t-127 -307.5z" glyph-name="q" horiz-adv-x="2263" unicode="q"/><glyph d="M123 1597h780q293 0 445.5 -164.5t152.5 -418.5q0 -174 -80 -316.5t-235 -214.5l346 -483h-490l-303 428h-209v-428h-407v1597zM881 1225h-351v-426h351q115 0 170 59.5t55 151.5q0 215 -225 215z" glyph-name="r" horiz-adv-x="2039" unicode="r"/><glyph d="M718 324q214 0 214 102q0 45 -60.5 82t-184.5 79t-188.5 66.5t-153.5 72.5t-142 100.5t-92 132t-39 174.5q0 225 174 360t454 135t465 -141t185 -375v-22h-400v14q0 66 -64.5 118t-170.5 52t-155.5 -32t-49.5 -77t56 -76.5t166 -70.5l148 -54q148 -54 253.5 -121.5 t172 -166.5t66.5 -232q0 -227 -176 -351t-466 -124t-480.5 131t-190.5 361v18h400v-10q0 -53 70.5 -99t188.5 -46z" glyph-name="s" horiz-adv-x="1902" unicode="s"/><glyph d="M25 1200v397h1405v-397h-498v-1200h-410v1200h-497z" glyph-name="t" horiz-adv-x="1925" unicode="t"/><glyph d="M1161 1597h408v-899q0 -319 -194.5 -524t-541.5 -205t-540 204t-193 525v899h410v-874q0 -174 82 -266t241.5 -92t243.5 92t84 266v874z" glyph-name="u" horiz-adv-x="2140" unicode="u"/><glyph d="M1051 0h-406l-645 1597h446l402 -1073l403 1073h447z" glyph-name="v" unicode="v"/><glyph d="M870 0h-424l-448 1597h436l258 -952l299 952h365l299 -950l258 950h438l-448 -1597h-424l-305 928z" glyph-name="w" horiz-adv-x="2820" unicode="w"/><glyph d="M1085 1597h484l-537 -794l549 -803h-498l-297 438l-294 -438h-498l549 803l-537 794h483l297 -436z" glyph-name="x" horiz-adv-x="2043" unicode="x"/><glyph d="M1038 0h-407v586l-631 1011h481l353 -579l354 579h483l-633 -1011v-586z" glyph-name="y" horiz-adv-x="2142" unicode="y"/><glyph d="M88 1200v397h1329v-299l-745 -903h747v-395h-1356v299l744 901h-719z" glyph-name="z" horiz-adv-x="1964" unicode="z"/><glyph d="M109 633v334h38q86 0 86 84q0 41 -76.5 201t-76.5 313q0 203 142.5 341t381.5 138h78v-369h-78q-66 0 -107.5 -35.5t-41.5 -97.5t88 -233.5t88 -264.5q0 -150 -113 -245q113 -94 113 -244q0 -92 -88 -264t-88 -235t42 -97.5t107 -34.5h78v-368h-78q-240 0 -382 137 t-142 342q0 151 76.5 312t76.5 202q0 84 -86 84h-38z" glyph-name="braceleft" horiz-adv-x="1236" unicode="{"/><glyph d="M117 1978h395v-2357h-395v2357z" glyph-name="bar" horiz-adv-x="1099" unicode="|"/><glyph d="M657 967v-334h-39q-86 0 -86 -84q0 -41 77 -201t77 -313q0 -203 -142.5 -341t-381.5 -138h-78v368h78q66 0 107.5 36t41.5 98t-88 233.5t-88 263.5q0 150 113 246q-113 94 -113 243q0 92 88 265t88 235t-42 96.5t-107 34.5h-78v369h78q240 0 382 -137.5t142 -341.5 q0 -155 -77 -314t-77 -200q0 -84 86 -84h39z" glyph-name="braceright" horiz-adv-x="1236" unicode="}"/><glyph d="M115 487q0 115 32.5 210.5t92 139.5t153.5 44t205 -80q33 -25 49.5 -25t20.5 14.5t2 51.5h272q0 -115 -32.5 -210t-92 -139t-153.5 -44t-205 79q-33 25 -49.5 25t-20.5 -14.5t-2 -51.5h-272z" glyph-name="asciitilde" horiz-adv-x="1531" unicode="~"/><glyph glyph-name="uni00A0" horiz-adv-x="1046" unicode=" "/><glyph d="M559 0h-457l93 1016h272zM590 1374.5q0 -106.5 -76 -182.5t-182.5 -76t-182 76t-75.5 182.5t75.5 182t182 75.5t182.5 -75.5t76 -182z" glyph-name="exclamdown" horiz-adv-x="1132" unicode="¡"/><glyph d="M850 -51h-383v205q-172 57 -280.5 202.5t-108.5 326.5t108.5 326.5t280.5 204.5v205h383v-207q213 -72 321 -272l-358 -160q-51 68 -130 68t-128 -48t-49 -118t48 -117t129 -47t132 68l359 -158q-104 -197 -324 -274v-205z" glyph-name="cent" horiz-adv-x="1722" unicode="¢"/><glyph d="M90 0v291q102 47 140 102.5t42 128.5h-176v352h103q-41 127 -41 240q0 240 149.5 377t359.5 137t357 -124t147 -359v-37h-397v12q0 63 -32.5 87t-78.5 24t-78 -27.5t-32 -69.5q0 -62 9 -90l61 -170h331v-352h-286q-8 -76 -21 -114h502v-408h-1059z" glyph-name="sterling" horiz-adv-x="1726" unicode="£"/><glyph d="M1454 565v-309h-356v-256h-410v256h-356v309h356v23l-26 43h-330v309h135l-410 657h484l352 -579l354 579h482l-410 -657h135v-309h-328l-28 -47v-19h356z" glyph-name="yen" horiz-adv-x="2256" unicode="¥"/><glyph d="M117 657h395v-1036h-395v1036zM117 1978h395v-1036h-395v1036z" glyph-name="brokenbar" horiz-adv-x="1099" unicode="¦"/><glyph d="M1102 762q0 -164 -150 -254q76 -92 76 -207q0 -158 -124 -245t-310 -87q-255 0 -354 123t-107 252l-2 31h381v-17q0 -76 76 -75q55 0 55 45q0 31 -36 49t-43 21l-193 81q-293 141 -293 352q0 166 149 254q-76 92 -75 207q0 160 123 248t309 88t321 -98t144 -279v-32h-381 v18q0 76 -76 76q-55 1 -55 -39t42 -61t49 -24l241 -93q233 -89 233 -334zM473 833q0 -46 37.5 -68.5t76 -36t48.5 -17.5l24 -11q47 16 47 66t-45 71t-53 24l-88 34q-47 -16 -47 -62z" glyph-name="section" horiz-adv-x="1652" unicode="§"/><glyph d="M0 1899q0 82 58.5 140t140.5 58t139 -58.5t57 -140.5t-57 -140t-139 -58t-140.5 58.5t-58.5 140.5zM516 1899q0 82 58.5 140t140.5 58t139 -58.5t57 -140.5t-57 -140t-139 -58t-140.5 58.5t-58.5 140.5z" glyph-name="dieresis" horiz-adv-x="1382" unicode="¨"/><glyph d="M80 798q0 341 243.5 585.5t584.5 244.5t586 -244.5t245 -585.5t-245 -585t-586 -244t-584.5 244t-243.5 585zM381 799q0 -219 154.5 -374t373.5 -155t376 156t157 374t-157 373.5t-376 155.5t-373.5 -155.5t-154.5 -374.5zM913 383q-174 0 -293.5 120t-119.5 294 t119.5 293.5t293.5 119.5q117 0 215.5 -61.5t151.5 -161.5l-281 -131q-31 47 -81 47t-81.5 -30.5t-31.5 -75.5t31.5 -76t80.5 -31t84 45l281 -129q-53 -102 -151.5 -162.5t-217.5 -60.5z" glyph-name="copyright" horiz-adv-x="2289" unicode="©"/><glyph d="M666 764v22q-74 -43 -187 -43q-176 0 -299 127.5t-123 313.5t123 315t299 129q109 0 187 -45v25h290v-844h-290zM350 1185q0 -67 43 -111t110.5 -44t113 44t45.5 111t-45.5 111.5t-113 44.5t-110.5 -44.5t-43 -111.5z" glyph-name="ordfeminine" horiz-adv-x="1550" unicode="ª"/><glyph d="M98 590v317l580 514v-483l-213 -188l213 -191v-481zM719 590v317l579 514v-483l-213 -188l213 -191v-481z" glyph-name="guillemotleft" horiz-adv-x="1904" unicode="«"/><glyph d="M78 1130.5q0 204.5 145.5 351t352 146.5t352 -146.5t145.5 -351t-145.5 -351t-352 -146.5t-352 146.5t-145.5 351zM207 1130.5q0 -153.5 107.5 -261t261 -107.5t261 107.5t107.5 261t-107.5 261t-261 107.5t-261 -107.5t-107.5 -261zM510 1038v-137h-113v481h207 q82 0 130 -49t48 -121q0 -104 -84 -151l95 -160h-123l-78 137h-82zM598 1274h-88v-127h88q33 0 51.5 20.5t18.5 46.5t-18.5 43t-51.5 17z" glyph-name="registered" horiz-adv-x="1622" unicode="®"/><glyph d="M733 2003v-303h-733v303h733z" glyph-name="macron" horiz-adv-x="1204" unicode="¯"/><glyph d="M57 1230q0 165 116 281.5t281 116.5t281.5 -116.5t116.5 -281.5t-117 -280.5t-281 -115.5t-280.5 115.5t-116.5 280.5zM328 1229q0 -53 37 -89t89 -36t90 37t38 89t-38 90t-90 38t-89 -38t-37 -91z" glyph-name="degree" horiz-adv-x="1380" unicode="°"/><glyph d="M393 1411h373v-287h291v-370h-291v-289h-373v289h-291v370h291v287zM1057 403v-370h-953v370h953z" glyph-name="plusminus" horiz-adv-x="1630" unicode="±"/><glyph d="M834 842v-283h-789v211l383 336q76 68 101.5 97.5t25.5 63.5t-26.5 55t-76.5 21t-83 -27.5t-33 -76.5v-33h-277v33q0 180 121 279.5t278.5 99.5t269.5 -96.5t112 -255.5q0 -80 -42 -158t-79 -114t-103 -93l-69 -59h287z" glyph-name="uni00B2" horiz-adv-x="1368" unicode="²"/><glyph d="M401 811q133 0 134 74q0 84 -261 84v229q238 0 238 90q0 27 -25.5 48.5t-70.5 21.5q-100 0 -101 -70v-4h-268v29q0 141 110.5 223t260.5 82t262.5 -82t112.5 -219t-125 -225q158 -80 158 -228t-120 -236.5t-308 -88.5t-375 104l153 231q129 -63 225 -63z" glyph-name="uni00B3" horiz-adv-x="1339" unicode="³"/><glyph d="M137 1675l-137 238l532 379l199 -344z" glyph-name="acute" horiz-adv-x="1202" unicode="´"/><glyph d="M1587 0h-395v1225h-82v-1225h-395v469h-78q-233 0 -397 166t-164 398t163.5 398t397.5 166h950v-1597zM471 1034q0 -84 46 -138t120 -54h78v383h-78q-74 0 -120 -53.5t-46 -137.5z" glyph-name="paragraph" horiz-adv-x="2189" unicode="¶"/><glyph d="M86 747.5q0 106.5 76 182.5t182.5 76t182 -76t75.5 -182.5t-75.5 -182.5t-182 -76t-182.5 76t-76 182.5z" glyph-name="periodcentered" horiz-adv-x="1126" unicode="·"/><glyph d="M602 -348q0 -98 -73.5 -172t-206.5 -74q-61 0 -134 16.5t-114 32.5l-43 17l106 245q102 -51 173 -51t71 47q0 23 -18.5 40.5t-65.5 0.5l-98 88l71 183h189l-23 -119q166 -53 166 -254z" glyph-name="cedilla" horiz-adv-x="1132" unicode="¸"/><glyph d="M465 1597v-1038h-283v713l-145 -49v297l237 77h191z" glyph-name="uni00B9" horiz-adv-x="1013" unicode="¹"/><glyph d="M55 1185q0 185 128.5 314t316.5 129t319 -129t131 -314t-131 -313.5t-318 -128.5t-316.5 128.5t-129.5 313.5zM346 1183.5q0 -65.5 44 -109.5t112 -44t112.5 44t44.5 109.5t-44.5 111.5t-112.5 46t-112 -46t-44 -111.5z" glyph-name="ordmasculine" horiz-adv-x="1476" unicode="º"/><glyph d="M715 909v-317l-580 -514v483l213 189l-213 190v481zM1335 909v-317l-579 -514v483l213 189l-213 190v481z" glyph-name="guillemotright" horiz-adv-x="1904" unicode="»"/><glyph d="M518 1597v-1038h-282v713l-146 -49v297l238 77h190zM1815 0h-275v174h-491v219l381 645h313l-352 -598h149v187h275v-187h104v-266h-104v-174zM598 0h-309l946 1597h309z" glyph-name="onequarter" horiz-adv-x="2461" unicode="¼"/><glyph d="M508 1597v-1038h-283v713l-145 -49v297l237 77h191zM1985 283v-283h-789v211l383 336q76 68 101.5 97.5t25.5 63.5t-26.5 55t-76.5 21t-83 -27.5t-33 -76.5v-33h-277v33q0 180 121 279.5t278.5 99.5t269.5 -96.5t112 -255.5q0 -80 -42 -158t-79 -114t-103 -93l-69 -59 h287zM588 0h-309l946 1597h309z" glyph-name="onehalf" horiz-adv-x="2543" unicode="½"/><glyph d="M2052 0h-274v174h-492v219l381 645h313l-352 -598h150v187h274v-187h105v-266h-105v-174zM836 0h-310l947 1597h309zM455 811q133 0 133 74q0 84 -260 84v229q238 0 237 90q0 27 -25.5 48.5t-70.5 21.5q-100 0 -100 -70v-4h-269v29q0 141 111 223t261 82t262 -82 t112 -219t-125 -225q158 -80 158 -228t-120.5 -236.5t-308.5 -88.5t-374 104l153 231q129 -63 226 -63z" glyph-name="threequarters" horiz-adv-x="2699" unicode="¾"/><glyph d="M483 1030h351v-65q0 -92 -42 -171t-84 -117t-104 -84t-85 -75.5t-23 -67.5t26.5 -68t80.5 -30t94 40t40 122v18h400v-67q0 -121 -50.5 -218t-176 -187.5t-329.5 -90.5t-351.5 130t-147.5 341q0 238 229 394l74 50q74 51 86 83t12 59v4zM913 1374.5q0 -106.5 -75.5 -182.5 t-182 -76t-182.5 76t-76 182.5t76 182t182.5 75.5t182 -75.5t75.5 -182z" glyph-name="questiondown" horiz-adv-x="1681" unicode="¿"/><glyph d="M647 1597h406l645 -1597h-447l-88 233h-628l-89 -233h-446zM1024 604l-174 469l-176 -469h350zM1217 1913l-138 -238l-594 273l199 344z" glyph-name="Agrave" unicode="À"/><glyph d="M647 1597h406l645 -1597h-447l-88 233h-628l-89 -233h-446zM1024 604l-174 469l-176 -469h350zM623 1675l-138 238l533 379l199 -344z" glyph-name="Aacute" unicode="Á"/><glyph d="M647 1597h406l645 -1597h-447l-88 233h-628l-89 -233h-446zM1024 604l-174 469l-176 -469h350zM1315 1909l-176 -219l-289 190l-293 -190l-174 219l467 366z" glyph-name="Acircumflex" unicode="Â"/><glyph d="M647 1597h406l645 -1597h-447l-88 233h-628l-89 -233h-446zM1024 604l-174 469l-176 -469h350zM436 1739q0 112 33 208.5t92.5 140.5t153.5 44t205 -80q59 -45 66 -20.5t5 61.5h273q0 -112 -33 -208.5t-92.5 -140.5t-153.5 -44t-205 80q-59 45 -66 20.5t-5 -61.5h-273z " glyph-name="Atilde" unicode="Ã"/><glyph d="M647 1597h406l645 -1597h-447l-88 233h-628l-89 -233h-446zM1024 604l-174 469l-176 -469h350zM395 1899q0 82 58.5 140t140.5 58t139.5 -58.5t57.5 -140.5t-57.5 -140t-139.5 -58t-140.5 58.5t-58.5 140.5zM911 1899q0 82 58.5 140t140.5 58t139.5 -58.5t57.5 -140.5 t-57.5 -140t-139.5 -58t-140.5 58.5t-58.5 140.5z" glyph-name="Adieresis" unicode="Ä"/><glyph d="M512 1852q0 156 99.5 256t238.5 100t240.5 -101.5t101.5 -240.5q0 -168 -139 -271l645 -1595h-447l-88 233h-628l-89 -233h-446l645 1595q-133 101 -133 257zM1024 604l-174 469l-176 -469h350zM752 1866q0 -41 28.5 -70t69.5 -29t69.5 29t28.5 70t-28.5 69.5t-69.5 28.5 t-69.5 -28.5t-28.5 -69.5z" glyph-name="Aring" unicode="Å"/><glyph d="M1321 0v233h-631l-184 -233h-526l1284 1597h1284v-397h-819v-229h673v-371h-673v-205h819v-395h-1227zM1321 604v430l-340 -430h340z" glyph-name="AE" horiz-adv-x="3094" unicode="Æ"/><glyph d="M1104 -360q0 -115 -74 -190t-202 -75t-255 50l-41 16l107 246q102 -51 173 -51t71 47q0 23 -18.5 40t-65.5 1l-99 88l66 168q-305 47 -512 279.5t-207 539.5q0 342 251 585.5t597 243.5q244 0 445.5 -125t310.5 -329l-373 -168q-55 102 -157.5 164.5t-225.5 62.5 q-180 0 -307 -127t-127 -307.5t127 -307t307 -126.5q125 0 226.5 61.5t156.5 165.5l375 -164q-98 -195 -284.5 -317.5t-412.5 -139.5l-18 -96q86 -27 126 -91.5t40 -143.5z" glyph-name="Ccedilla" horiz-adv-x="2144" unicode="Ç"/><glyph d="M123 0v1597h1227v-397h-818v-229h672v-371h-672v-205h818v-395h-1227zM1102 1913l-137 -238l-594 273l198 344z" glyph-name="Egrave" horiz-adv-x="1896" unicode="È"/><glyph d="M123 0v1597h1227v-397h-818v-229h672v-371h-672v-205h818v-395h-1227zM508 1675l-137 238l532 379l199 -344z" glyph-name="Eacute" horiz-adv-x="1896" unicode="É"/><glyph d="M123 0v1597h1227v-397h-818v-229h672v-371h-672v-205h818v-395h-1227zM1200 1909l-176 -219l-289 190l-293 -190l-174 219l467 366z" glyph-name="Ecircumflex" horiz-adv-x="1896" unicode="Ê"/><glyph d="M123 0v1597h1227v-397h-818v-229h672v-371h-672v-205h818v-395h-1227zM281 1899q0 82 58 140t140 58t139.5 -58.5t57.5 -140.5t-57.5 -140t-139.5 -58t-140 58.5t-58 140.5zM797 1899q0 82 58 140t140 58t139.5 -58.5t57.5 -140.5t-57.5 -140t-139.5 -58t-140 58.5 t-58 140.5z" glyph-name="Edieresis" horiz-adv-x="1896" unicode="Ë"/><glyph d="M123 1597h409v-1597h-409v1597zM692 1913l-137 -238l-594 273l199 344z" glyph-name="Igrave" horiz-adv-x="1126" unicode="Ì"/><glyph d="M123 1597h409v-1597h-409v1597zM98 1675l-137 238l533 379l198 -344z" glyph-name="Iacute" horiz-adv-x="1126" unicode="Í"/><glyph d="M123 1597h409v-1597h-409v1597zM791 1909l-177 -219l-288 190l-293 -190l-174 219l467 366z" glyph-name="Icircumflex" horiz-adv-x="1126" unicode="Î"/><glyph d="M123 1597h409v-1597h-409v1597zM-129 1899q0 82 58.5 140t140.5 58t139 -58.5t57 -140.5t-57 -140t-139 -58t-140.5 58.5t-58.5 140.5zM387 1899q0 82 58.5 140t140.5 58t139 -58.5t57 -140.5t-57 -140t-139 -58t-140.5 58.5t-58.5 140.5z" glyph-name="Idieresis" horiz-adv-x="1126" unicode="Ï"/><glyph d="M133 0v608h-117v353h117v636h741q242 0 416 -110.5t257 -288.5t83 -400t-83 -400.5t-257 -288t-416 -109.5h-741zM881 961v-353h-338v-213h301q178 0 275.5 109.5t97.5 294t-97.5 293t-275.5 108.5h-301v-239h338z" glyph-name="Eth" horiz-adv-x="2156" unicode="Ð"/><glyph d="M532 0h-409v1597h348l713 -892v892h407v-1597h-346l-713 891v-891zM444 1739q0 112 33 208.5t92.5 140.5t153.5 44t205 -80q59 -45 66 -20.5t5 61.5h273q0 -112 -33 -208.5t-92.5 -140.5t-153.5 -44t-205 80q-59 45 -66 20.5t-5 -61.5h-273z" glyph-name="Ntilde" horiz-adv-x="2185" unicode="Ñ"/><glyph d="M47 799q0 342 251 585.5t599 243.5t597 -243.5t249 -585.5t-249 -586t-597 -244t-599 244t-251 586zM461 798.5q0 -180.5 127 -307t309 -126.5t307 125.5t125 308t-125 308.5t-307 126t-309 -127t-127 -307.5zM1262 1913l-138 -238l-594 273l199 344z" glyph-name="Ograve" horiz-adv-x="2260" unicode="Ò"/><glyph d="M47 799q0 342 251 585.5t599 243.5t597 -243.5t249 -585.5t-249 -586t-597 -244t-599 244t-251 586zM461 798.5q0 -180.5 127 -307t309 -126.5t307 125.5t125 308t-125 308.5t-307 126t-309 -127t-127 -307.5zM670 1675l-138 238l533 379l199 -344z" glyph-name="Oacute" horiz-adv-x="2260" unicode="Ó"/><glyph d="M47 799q0 342 251 585.5t599 243.5t597 -243.5t249 -585.5t-249 -586t-597 -244t-599 244t-251 586zM461 798.5q0 -180.5 127 -307t309 -126.5t307 125.5t125 308t-125 308.5t-307 126t-309 -127t-127 -307.5zM1360 1909l-176 -219l-289 190l-293 -190l-174 219l467 366z " glyph-name="Ocircumflex" horiz-adv-x="2260" unicode="Ô"/><glyph d="M47 799q0 342 251 585.5t599 243.5t597 -243.5t249 -585.5t-249 -586t-597 -244t-599 244t-251 586zM461 798.5q0 -180.5 127 -307t309 -126.5t307 125.5t125 308t-125 308.5t-307 126t-309 -127t-127 -307.5zM483 1739q0 112 33 208.5t92.5 140.5t153.5 44t205 -80 q59 -45 66 -20.5t5 61.5h273q0 -112 -33 -208.5t-92.5 -140.5t-153.5 -44t-205 80q-59 45 -66 20.5t-5 -61.5h-273z" glyph-name="Otilde" horiz-adv-x="2260" unicode="Õ"/><glyph d="M47 799q0 342 251 585.5t599 243.5t597 -243.5t249 -585.5t-249 -586t-597 -244t-599 244t-251 586zM461 798.5q0 -180.5 127 -307t309 -126.5t307 125.5t125 308t-125 308.5t-307 126t-309 -127t-127 -307.5zM440 1899q0 82 58.5 140t140.5 58t139.5 -58.5t57.5 -140.5 t-57.5 -140t-139.5 -58t-140.5 58.5t-58.5 140.5zM956 1899q0 82 58.5 140t140.5 58t139.5 -58.5t57.5 -140.5t-57.5 -140t-139.5 -58t-140.5 58.5t-58.5 140.5z" glyph-name="Odieresis" horiz-adv-x="2260" unicode="Ö"/><glyph d="M346 229l-264 263l260 260l-260 260l264 262l258 -260l260 260l264 -262l-260 -260l260 -260l-264 -263l-260 258z" glyph-name="multiply" horiz-adv-x="1681" unicode="×"/><glyph d="M47 807q0 334 250 577.5t598 243.5q213 0 410 -104l59 73h346l-192 -239q225 -238 225 -570t-250 -575.5t-598 -243.5q-217 0 -410 105l-59 -74h-346l190 238q-223 235 -223 569zM1329 799q0 129 -69 237l-521 -645q72 -27 156 -26q182 0 308 126t126 308zM461 799 q0 -133 69 -238l519 643q-76 29 -154 29q-182 0 -308 -127t-126 -307z" glyph-name="Oslash" horiz-adv-x="2258" unicode="Ø"/><glyph d="M1161 1597h408v-899q0 -319 -194.5 -524t-541.5 -205t-540 204t-193 525v899h410v-874q0 -174 82 -266t241.5 -92t243.5 92t84 266v874zM1200 1913l-137 -238l-594 273l199 344z" glyph-name="Ugrave" horiz-adv-x="2140" unicode="Ù"/><glyph d="M1161 1597h408v-899q0 -319 -194.5 -524t-541.5 -205t-540 204t-193 525v899h410v-874q0 -174 82 -266t241.5 -92t243.5 92t84 266v874zM606 1675l-137 238l532 379l199 -344z" glyph-name="Uacute" horiz-adv-x="2140" unicode="Ú"/><glyph d="M1161 1597h408v-899q0 -319 -194.5 -524t-541.5 -205t-540 204t-193 525v899h410v-874q0 -174 82 -266t241.5 -92t243.5 92t84 266v874zM1298 1909l-176 -219l-288 190l-293 -190l-174 219l467 366z" glyph-name="Ucircumflex" horiz-adv-x="2140" unicode="Û"/><glyph d="M1161 1597h408v-899q0 -319 -194.5 -524t-541.5 -205t-540 204t-193 525v899h410v-874q0 -174 82 -266t241.5 -92t243.5 92t84 266v874zM379 1899q0 82 58.5 140t140 58t139 -58.5t57.5 -140.5t-57.5 -140t-139 -58t-140 58.5t-58.5 140.5zM895 1899q0 82 58.5 140 t140.5 58t139 -58.5t57 -140.5t-57 -140t-139 -58t-140.5 58.5t-58.5 140.5z" glyph-name="Udieresis" horiz-adv-x="2140" unicode="Ü"/><glyph d="M1038 0h-407v586l-631 1011h481l353 -579l354 579h483l-633 -1011v-586zM606 1675l-137 238l532 379l199 -344z" glyph-name="Yacute" horiz-adv-x="2142" unicode="Ý"/><glyph d="M123 0v1597h409v-184h295q301 0 464 -177t163 -440t-162 -440.5t-465 -177.5h-295v-178h-409zM805 1040h-273v-489h273q236 0 235 248q0 104 -57 172.5t-178 68.5z" glyph-name="Thorn" horiz-adv-x="1978" unicode="Þ"/><glyph d="M1167 336q90 0 145.5 45t55.5 113q0 104 -114.5 148t-299.5 -3l-202 279l407 317q-125 39 -307 39t-272.5 -91t-90.5 -235v-948h-385v979q0 268 134.5 411.5t280 200t317.5 56.5t397 -41t418 -105v-291l-320 -247q150 -25 249 -106t141 -168t42 -191q0 -221 -164.5 -375 t-414.5 -154q-178 0 -340 75t-264 216l327 207q98 -131 260 -131z" glyph-name="germandbls" horiz-adv-x="2281" unicode="ß"/><glyph d="M647 1597h406l645 -1597h-447l-88 233h-628l-89 -233h-446zM1024 604l-174 469l-176 -469h350zM1217 1913l-138 -238l-594 273l199 344z" glyph-name="agrave" unicode="à"/><glyph d="M647 1597h406l645 -1597h-447l-88 233h-628l-89 -233h-446zM1024 604l-174 469l-176 -469h350zM623 1675l-138 238l533 379l199 -344z" glyph-name="aacute" unicode="á"/><glyph d="M647 1597h406l645 -1597h-447l-88 233h-628l-89 -233h-446zM1024 604l-174 469l-176 -469h350zM1315 1909l-176 -219l-289 190l-293 -190l-174 219l467 366z" glyph-name="acircumflex" unicode="â"/><glyph d="M647 1597h406l645 -1597h-447l-88 233h-628l-89 -233h-446zM1024 604l-174 469l-176 -469h350zM436 1739q0 112 33 208.5t92.5 140.5t153.5 44t205 -80q59 -45 66 -20.5t5 61.5h273q0 -112 -33 -208.5t-92.5 -140.5t-153.5 -44t-205 80q-59 45 -66 20.5t-5 -61.5h-273z " glyph-name="atilde" unicode="ã"/><glyph d="M647 1597h406l645 -1597h-447l-88 233h-628l-89 -233h-446zM1024 604l-174 469l-176 -469h350zM395 1899q0 82 58.5 140t140.5 58t139.5 -58.5t57.5 -140.5t-57.5 -140t-139.5 -58t-140.5 58.5t-58.5 140.5zM911 1899q0 82 58.5 140t140.5 58t139.5 -58.5t57.5 -140.5 t-57.5 -140t-139.5 -58t-140.5 58.5t-58.5 140.5z" glyph-name="adieresis" unicode="ä"/><glyph d="M512 1852q0 156 99.5 256t238.5 100t240.5 -101.5t101.5 -240.5q0 -168 -139 -271l645 -1595h-447l-88 233h-628l-89 -233h-446l645 1595q-133 101 -133 257zM1024 604l-174 469l-176 -469h350zM752 1866q0 -41 28.5 -70t69.5 -29t69.5 29t28.5 70t-28.5 69.5t-69.5 28.5 t-69.5 -28.5t-28.5 -69.5z" glyph-name="aring" unicode="å"/><glyph d="M1321 0v233h-631l-184 -233h-526l1284 1597h1284v-397h-819v-229h673v-371h-673v-205h819v-395h-1227zM1321 604v430l-340 -430h340z" glyph-name="ae" horiz-adv-x="3094" unicode="æ"/><glyph d="M1104 -360q0 -115 -74 -190t-202 -75t-255 50l-41 16l107 246q102 -51 173 -51t71 47q0 23 -18.5 40t-65.5 1l-99 88l66 168q-305 47 -512 279.5t-207 539.5q0 342 251 585.5t597 243.5q244 0 445.5 -125t310.5 -329l-373 -168q-55 102 -157.5 164.5t-225.5 62.5 q-180 0 -307 -127t-127 -307.5t127 -307t307 -126.5q125 0 226.5 61.5t156.5 165.5l375 -164q-98 -195 -284.5 -317.5t-412.5 -139.5l-18 -96q86 -27 126 -91.5t40 -143.5z" glyph-name="ccedilla" horiz-adv-x="2144" unicode="ç"/><glyph d="M123 0v1597h1227v-397h-818v-229h672v-371h-672v-205h818v-395h-1227zM1102 1913l-137 -238l-594 273l198 344z" glyph-name="egrave" horiz-adv-x="1896" unicode="è"/><glyph d="M123 0v1597h1227v-397h-818v-229h672v-371h-672v-205h818v-395h-1227zM508 1675l-137 238l532 379l199 -344z" glyph-name="eacute" horiz-adv-x="1896" unicode="é"/><glyph d="M123 0v1597h1227v-397h-818v-229h672v-371h-672v-205h818v-395h-1227zM1200 1909l-176 -219l-289 190l-293 -190l-174 219l467 366z" glyph-name="ecircumflex" horiz-adv-x="1896" unicode="ê"/><glyph d="M123 0v1597h1227v-397h-818v-229h672v-371h-672v-205h818v-395h-1227zM281 1899q0 82 58 140t140 58t139.5 -58.5t57.5 -140.5t-57.5 -140t-139.5 -58t-140 58.5t-58 140.5zM797 1899q0 82 58 140t140 58t139.5 -58.5t57.5 -140.5t-57.5 -140t-139.5 -58t-140 58.5 t-58 140.5z" glyph-name="edieresis" horiz-adv-x="1896" unicode="ë"/><glyph d="M123 1597h409v-1597h-409v1597zM692 1913l-137 -238l-594 273l199 344z" glyph-name="igrave" horiz-adv-x="1126" unicode="ì"/><glyph d="M123 1597h409v-1597h-409v1597zM98 1675l-137 238l533 379l198 -344z" glyph-name="iacute" horiz-adv-x="1126" unicode="í"/><glyph d="M123 1597h409v-1597h-409v1597zM791 1909l-177 -219l-288 190l-293 -190l-174 219l467 366z" glyph-name="icircumflex" horiz-adv-x="1126" unicode="î"/><glyph d="M123 1597h409v-1597h-409v1597zM-129 1899q0 82 58.5 140t140.5 58t139 -58.5t57 -140.5t-57 -140t-139 -58t-140.5 58.5t-58.5 140.5zM387 1899q0 82 58.5 140t140.5 58t139 -58.5t57 -140.5t-57 -140t-139 -58t-140.5 58.5t-58.5 140.5z" glyph-name="idieresis" horiz-adv-x="1126" unicode="ï"/><glyph d="M133 0v608h-117v353h117v636h741q242 0 416 -110.5t257 -288.5t83 -400t-83 -400.5t-257 -288t-416 -109.5h-741zM881 961v-353h-338v-213h301q178 0 275.5 109.5t97.5 294t-97.5 293t-275.5 108.5h-301v-239h338z" glyph-name="eth" horiz-adv-x="2156" unicode="ð"/><glyph d="M532 0h-409v1597h348l713 -892v892h407v-1597h-346l-713 891v-891zM444 1739q0 112 33 208.5t92.5 140.5t153.5 44t205 -80q59 -45 66 -20.5t5 61.5h273q0 -112 -33 -208.5t-92.5 -140.5t-153.5 -44t-205 80q-59 45 -66 20.5t-5 -61.5h-273z" glyph-name="ntilde" horiz-adv-x="2185" unicode="ñ"/><glyph d="M47 799q0 342 251 585.5t599 243.5t597 -243.5t249 -585.5t-249 -586t-597 -244t-599 244t-251 586zM461 798.5q0 -180.5 127 -307t309 -126.5t307 125.5t125 308t-125 308.5t-307 126t-309 -127t-127 -307.5zM1262 1913l-138 -238l-594 273l199 344z" glyph-name="ograve" horiz-adv-x="2260" unicode="ò"/><glyph d="M47 799q0 342 251 585.5t599 243.5t597 -243.5t249 -585.5t-249 -586t-597 -244t-599 244t-251 586zM461 798.5q0 -180.5 127 -307t309 -126.5t307 125.5t125 308t-125 308.5t-307 126t-309 -127t-127 -307.5zM670 1675l-138 238l533 379l199 -344z" glyph-name="oacute" horiz-adv-x="2260" unicode="ó"/><glyph d="M47 799q0 342 251 585.5t599 243.5t597 -243.5t249 -585.5t-249 -586t-597 -244t-599 244t-251 586zM461 798.5q0 -180.5 127 -307t309 -126.5t307 125.5t125 308t-125 308.5t-307 126t-309 -127t-127 -307.5zM1360 1909l-176 -219l-289 190l-293 -190l-174 219l467 366z " glyph-name="ocircumflex" horiz-adv-x="2260" unicode="ô"/><glyph d="M47 799q0 342 251 585.5t599 243.5t597 -243.5t249 -585.5t-249 -586t-597 -244t-599 244t-251 586zM461 798.5q0 -180.5 127 -307t309 -126.5t307 125.5t125 308t-125 308.5t-307 126t-309 -127t-127 -307.5zM483 1739q0 112 33 208.5t92.5 140.5t153.5 44t205 -80 q59 -45 66 -20.5t5 61.5h273q0 -112 -33 -208.5t-92.5 -140.5t-153.5 -44t-205 80q-59 45 -66 20.5t-5 -61.5h-273z" glyph-name="otilde" horiz-adv-x="2260" unicode="õ"/><glyph d="M47 799q0 342 251 585.5t599 243.5t597 -243.5t249 -585.5t-249 -586t-597 -244t-599 244t-251 586zM461 798.5q0 -180.5 127 -307t309 -126.5t307 125.5t125 308t-125 308.5t-307 126t-309 -127t-127 -307.5zM440 1899q0 82 58.5 140t140.5 58t139.5 -58.5t57.5 -140.5 t-57.5 -140t-139.5 -58t-140.5 58.5t-58.5 140.5zM956 1899q0 82 58.5 140t140.5 58t139.5 -58.5t57.5 -140.5t-57.5 -140t-139.5 -58t-140.5 58.5t-58.5 140.5z" glyph-name="odieresis" horiz-adv-x="2260" unicode="ö"/><glyph d="M297 1234.5q0 106.5 76 182.5t182.5 76t182 -76t75.5 -182.5t-75.5 -182t-182 -75.5t-182.5 75.5t-76 182zM297 262.5q0 106.5 76 182t182.5 75.5t182 -75.5t75.5 -182t-75.5 -182.5t-182 -76t-182.5 76t-76 182.5zM1032 934v-371h-952v371h952z" glyph-name="divide" horiz-adv-x="1583" unicode="÷"/><glyph d="M47 807q0 334 250 577.5t598 243.5q213 0 410 -104l59 73h346l-192 -239q225 -238 225 -570t-250 -575.5t-598 -243.5q-217 0 -410 105l-59 -74h-346l190 238q-223 235 -223 569zM1329 799q0 129 -69 237l-521 -645q72 -27 156 -26q182 0 308 126t126 308zM461 799 q0 -133 69 -238l519 643q-76 29 -154 29q-182 0 -308 -127t-126 -307z" glyph-name="oslash" horiz-adv-x="2258" unicode="ø"/><glyph d="M1161 1597h408v-899q0 -319 -194.5 -524t-541.5 -205t-540 204t-193 525v899h410v-874q0 -174 82 -266t241.5 -92t243.5 92t84 266v874zM1200 1913l-137 -238l-594 273l199 344z" glyph-name="ugrave" horiz-adv-x="2140" unicode="ù"/><glyph d="M1161 1597h408v-899q0 -319 -194.5 -524t-541.5 -205t-540 204t-193 525v899h410v-874q0 -174 82 -266t241.5 -92t243.5 92t84 266v874zM606 1675l-137 238l532 379l199 -344z" glyph-name="uacute" horiz-adv-x="2140" unicode="ú"/><glyph d="M1161 1597h408v-899q0 -319 -194.5 -524t-541.5 -205t-540 204t-193 525v899h410v-874q0 -174 82 -266t241.5 -92t243.5 92t84 266v874zM1298 1909l-176 -219l-288 190l-293 -190l-174 219l467 366z" glyph-name="ucircumflex" horiz-adv-x="2140" unicode="û"/><glyph d="M1161 1597h408v-899q0 -319 -194.5 -524t-541.5 -205t-540 204t-193 525v899h410v-874q0 -174 82 -266t241.5 -92t243.5 92t84 266v874zM379 1899q0 82 58.5 140t140 58t139 -58.5t57.5 -140.5t-57.5 -140t-139 -58t-140 58.5t-58.5 140.5zM895 1899q0 82 58.5 140 t140.5 58t139 -58.5t57 -140.5t-57 -140t-139 -58t-140.5 58.5t-58.5 140.5z" glyph-name="udieresis" horiz-adv-x="2140" unicode="ü"/><glyph d="M1038 0h-407v586l-631 1011h481l353 -579l354 579h483l-633 -1011v-586zM606 1675l-137 238l532 379l199 -344z" glyph-name="yacute" horiz-adv-x="2142" unicode="ý"/><glyph d="M123 0v1597h409v-184h295q301 0 464 -177t163 -440t-162 -440.5t-465 -177.5h-295v-178h-409zM805 1040h-273v-489h273q236 0 235 248q0 104 -57 172.5t-178 68.5z" glyph-name="thorn" horiz-adv-x="1978" unicode="þ"/><glyph d="M1038 0h-407v586l-631 1011h481l353 -579l354 579h483l-633 -1011v-586zM379 1899q0 82 58.5 140t140 58t139 -58.5t57.5 -140.5t-57.5 -140t-139 -58t-140 58.5t-58.5 140.5zM895 1899q0 82 58.5 140t140.5 58t139 -58.5t57 -140.5t-57 -140t-139 -58t-140.5 58.5 t-58.5 140.5z" glyph-name="ydieresis" horiz-adv-x="2142" unicode="ÿ"/><glyph d="M647 1597h406l645 -1597h-447l-88 233h-628l-89 -233h-446zM1024 604l-174 469l-176 -469h350zM1217 2003v-303h-734v303h734z" glyph-name="Amacron" unicode="Ā"/><glyph d="M647 1597h406l645 -1597h-447l-88 233h-628l-89 -233h-446zM1024 604l-174 469l-176 -469h350zM1217 2003v-303h-734v303h734z" glyph-name="amacron" unicode="ā"/><glyph d="M647 1597h406l645 -1597h-447l-88 233h-628l-89 -233h-446zM1024 604l-174 469l-176 -469h350zM849 2011q132 0 214 127l242 -139q-63 -139 -179 -224t-276 -85t-274.5 85t-180.5 224l242 139q80 -127 212 -127z" glyph-name="Abreve" unicode="Ă"/><glyph d="M647 1597h406l645 -1597h-447l-88 233h-628l-89 -233h-446zM1024 604l-174 469l-176 -469h350zM849 2011q132 0 214 127l242 -139q-63 -139 -179 -224t-276 -85t-274.5 85t-180.5 224l242 139q80 -127 212 -127z" glyph-name="abreve" unicode="ă"/><glyph d="M1245 -252q0 148 146 252h-140l-88 233h-628l-89 -233h-446l647 1597h404l647 -1597q-186 -84 -187 -178q0 -41 35 -56.5t88 -5.5l47 -292q-188 -23 -312 54.5t-124 225.5zM1024 604l-174 469l-176 -469h350z" glyph-name="Aogonek" unicode="Ą"/><glyph d="M1245 -252q0 148 146 252h-140l-88 233h-628l-89 -233h-446l647 1597h404l647 -1597q-186 -84 -187 -178q0 -41 35 -56.5t88 -5.5l47 -292q-188 -23 -312 54.5t-124 225.5zM1024 604l-174 469l-176 -469h350z" glyph-name="aogonek" unicode="ą"/><glyph d="M895 -31q-346 0 -597 244t-251 586t251 585.5t597 243.5q244 0 445.5 -125t310.5 -329l-373 -168q-55 102 -157.5 164.5t-225.5 62.5q-180 0 -307 -127t-127 -307.5t127 -307t307 -126.5q125 0 226.5 61.5t156.5 165.5l375 -164q-106 -207 -310 -333t-448 -126zM668 1696 l-138 237l533 379l199 -344z" glyph-name="Cacute" horiz-adv-x="2144" unicode="Ć"/><glyph d="M895 -31q-346 0 -597 244t-251 586t251 585.5t597 243.5q244 0 445.5 -125t310.5 -329l-373 -168q-55 102 -157.5 164.5t-225.5 62.5q-180 0 -307 -127t-127 -307.5t127 -307t307 -126.5q125 0 226.5 61.5t156.5 165.5l375 -164q-106 -207 -310 -333t-448 -126zM668 1696 l-138 237l533 379l199 -344z" glyph-name="cacute" horiz-adv-x="2144" unicode="ć"/><glyph d="M895 -31q-346 0 -597 244t-251 586t251 585.5t597 243.5q244 0 445.5 -125t310.5 -329l-373 -168q-55 102 -157.5 164.5t-225.5 62.5q-180 0 -307 -127t-127 -307.5t127 -307t307 -126.5q125 0 226.5 61.5t156.5 165.5l375 -164q-106 -207 -310 -333t-448 -126zM702 1878 q0 82 58.5 140.5t140.5 58.5t139.5 -58.5t57.5 -140.5t-57.5 -140.5t-139.5 -58.5t-140.5 58.5t-58.5 140.5z" glyph-name="Cdotaccent" horiz-adv-x="2144" unicode="Ċ"/><glyph d="M895 -31q-346 0 -597 244t-251 586t251 585.5t597 243.5q244 0 445.5 -125t310.5 -329l-373 -168q-55 102 -157.5 164.5t-225.5 62.5q-180 0 -307 -127t-127 -307.5t127 -307t307 -126.5q125 0 226.5 61.5t156.5 165.5l375 -164q-106 -207 -310 -333t-448 -126zM702 1878 q0 82 58.5 140.5t140.5 58.5t139.5 -58.5t57.5 -140.5t-57.5 -140.5t-139.5 -58.5t-140.5 58.5t-58.5 140.5z" glyph-name="cdotaccent" horiz-adv-x="2144" unicode="ċ"/><glyph d="M895 -31q-346 0 -597 244t-251 586t251 585.5t597 243.5q244 0 445.5 -125t310.5 -329l-373 -168q-55 102 -157.5 164.5t-225.5 62.5q-180 0 -307 -127t-127 -307.5t127 -307t307 -126.5q125 0 226.5 61.5t156.5 165.5l375 -164q-106 -207 -310 -333t-448 -126z M1184 2275l176 -219l-465 -366l-467 366l174 219l293 -188z" glyph-name="Ccaron" horiz-adv-x="2144" unicode="Č"/><glyph d="M895 -31q-346 0 -597 244t-251 586t251 585.5t597 243.5q244 0 445.5 -125t310.5 -329l-373 -168q-55 102 -157.5 164.5t-225.5 62.5q-180 0 -307 -127t-127 -307.5t127 -307t307 -126.5q125 0 226.5 61.5t156.5 165.5l375 -164q-106 -207 -310 -333t-448 -126z M1184 2275l176 -219l-465 -366l-467 366l174 219l293 -188z" glyph-name="ccaron" horiz-adv-x="2144" unicode="č"/><glyph d="M123 0v1597h741q242 0 416 -110.5t257 -288.5t83 -400t-83 -400.5t-257 -288t-416 -109.5h-741zM834 1200h-302v-805h302q178 0 275 109.5t97 294t-97 293t-275 108.5zM1159 2275l176 -219l-465 -366l-467 366l175 219l292 -188z" glyph-name="Dcaron" horiz-adv-x="2146" unicode="Ď"/><glyph d="M123 0v1597h741q242 0 416 -110.5t257 -288.5t83 -400t-83 -400.5t-257 -288t-416 -109.5h-741zM834 1200h-302v-805h302q178 0 275 109.5t97 294t-97 293t-275 108.5zM1159 2275l176 -219l-465 -366l-467 366l175 219l292 -188z" glyph-name="dcaron" horiz-adv-x="2146" unicode="ď"/><glyph d="M133 0v608h-117v353h117v636h741q242 0 416 -110.5t257 -288.5t83 -400t-83 -400.5t-257 -288t-416 -109.5h-741zM881 961v-353h-338v-213h301q178 0 275.5 109.5t97.5 294t-97.5 293t-275.5 108.5h-301v-239h338z" glyph-name="Dcroat" horiz-adv-x="2156" unicode="Đ"/><glyph d="M133 0v608h-117v353h117v636h741q242 0 416 -110.5t257 -288.5t83 -400t-83 -400.5t-257 -288t-416 -109.5h-741zM881 961v-353h-338v-213h301q178 0 275.5 109.5t97.5 294t-97.5 293t-275.5 108.5h-301v-239h338z" glyph-name="dcroat" horiz-adv-x="2156" unicode="đ"/><glyph d="M123 0v1597h1227v-397h-818v-229h672v-371h-672v-205h818v-395h-1227zM1104 2003v-303h-733v303h733z" glyph-name="Emacron" horiz-adv-x="1896" unicode="Ē"/><glyph d="M123 0v1597h1227v-397h-818v-229h672v-371h-672v-205h818v-395h-1227zM1104 2003v-303h-733v303h733z" glyph-name="emacron" horiz-adv-x="1896" unicode="ē"/><glyph d="M123 0v1597h1227v-397h-818v-229h672v-371h-672v-205h818v-395h-1227zM539 1878q0 82 58 140.5t140 58.5t139.5 -58.5t57.5 -140.5t-57.5 -140.5t-139.5 -58.5t-140 58.5t-58 140.5z" glyph-name="Edotaccent" horiz-adv-x="1896" unicode="Ė"/><glyph d="M123 0v1597h1227v-397h-818v-229h672v-371h-672v-205h818v-395h-1227zM539 1878q0 82 58 140.5t140 58.5t139.5 -58.5t57.5 -140.5t-57.5 -140.5t-139.5 -58.5t-140 58.5t-58 140.5z" glyph-name="edotaccent" horiz-adv-x="1896" unicode="ė"/><glyph d="M123 0v1597h1227v-397h-818v-229h672v-371h-672v-205h818v-395q-182 -82 -183 -178q0 -41 35 -56.5t88 -5.5l47 -292q-188 -23 -312 54.5t-124 225.5t146 252h-924z" glyph-name="Eogonek" horiz-adv-x="1896" unicode="Ę"/><glyph d="M123 0v1597h1227v-397h-818v-229h672v-371h-672v-205h818v-395q-182 -82 -183 -178q0 -41 35 -56.5t88 -5.5l47 -292q-188 -23 -312 54.5t-124 225.5t146 252h-924z" glyph-name="eogonek" horiz-adv-x="1896" unicode="ę"/><glyph d="M123 0v1597h1227v-397h-818v-229h672v-371h-672v-205h818v-395h-1227zM1024 2275l176 -219l-465 -366l-467 366l174 219l293 -188z" glyph-name="Ecaron" horiz-adv-x="1896" unicode="Ě"/><glyph d="M123 0v1597h1227v-397h-818v-229h672v-371h-672v-205h818v-395h-1227zM1024 2275l176 -219l-465 -366l-467 366l174 219l293 -188z" glyph-name="ecaron" horiz-adv-x="1896" unicode="ě"/><glyph d="M850 592v340h770v-932h-322v150q-57 -86 -166.5 -133.5t-236.5 -47.5q-348 0 -598 244t-250 586t250 585.5t598 243.5q203 0 381 -90t295 -244l-334 -225q-131 164 -327 164t-322.5 -127t-126.5 -307.5t126 -307t308 -126.5q217 0 342 182v45h-387zM892 2011 q132 0 214 127l242 -139q-63 -139 -179 -224t-276 -85t-274.5 85t-180.5 224l242 139q80 -127 212 -127z" glyph-name="Gbreve" horiz-adv-x="2174" unicode="Ğ"/><glyph d="M850 592v340h770v-932h-322v150q-57 -86 -166.5 -133.5t-236.5 -47.5q-348 0 -598 244t-250 586t250 585.5t598 243.5q203 0 381 -90t295 -244l-334 -225q-131 164 -327 164t-322.5 -127t-126.5 -307.5t126 -307t308 -126.5q217 0 342 182v45h-387zM892 2011 q132 0 214 127l242 -139q-63 -139 -179 -224t-276 -85t-274.5 85t-180.5 224l242 139q80 -127 212 -127z" glyph-name="gbreve" horiz-adv-x="2174" unicode="ğ"/><glyph d="M850 592v340h770v-932h-322v150q-57 -86 -166.5 -133.5t-236.5 -47.5q-348 0 -598 244t-250 586t250 585.5t598 243.5q203 0 381 -90t295 -244l-334 -225q-131 164 -327 164t-322.5 -127t-126.5 -307.5t126 -307t308 -126.5q217 0 342 182v45h-387zM698 1878 q0 82 58.5 140.5t140.5 58.5t139.5 -58.5t57.5 -140.5t-57.5 -140.5t-139.5 -58.5t-140.5 58.5t-58.5 140.5z" glyph-name="Gdotaccent" horiz-adv-x="2174" unicode="Ġ"/><glyph d="M850 592v340h770v-932h-322v150q-57 -86 -166.5 -133.5t-236.5 -47.5q-348 0 -598 244t-250 586t250 585.5t598 243.5q203 0 381 -90t295 -244l-334 -225q-131 164 -327 164t-322.5 -127t-126.5 -307.5t126 -307t308 -126.5q217 0 342 182v45h-387zM698 1878 q0 82 58.5 140.5t140.5 58.5t139.5 -58.5t57.5 -140.5t-57.5 -140.5t-139.5 -58.5t-140.5 58.5t-58.5 140.5z" glyph-name="gdotaccent" horiz-adv-x="2174" unicode="ġ"/><glyph d="M850 592v340h770v-932h-322v150q-57 -86 -166.5 -133.5t-236.5 -47.5q-348 0 -598 244t-250 586t250 585.5t598 243.5q203 0 381 -90t295 -244l-334 -225q-131 164 -327 164t-322.5 -127t-126.5 -307.5t126 -307t308 -126.5q217 0 342 182v45h-387zM739 -238 q0 60 54.5 114t130 54t128 -53t52.5 -143q0 -139 -250 -379l-117 113l27 34q27 33 30 38l29 41q2 3 -22.5 26.5t-43 59t-18.5 95.5z" glyph-name="Gcommaaccent" horiz-adv-x="2174" unicode="Ģ"/><glyph d="M850 592v340h770v-932h-322v150q-57 -86 -166.5 -133.5t-236.5 -47.5q-348 0 -598 244t-250 586t250 585.5t598 243.5q203 0 381 -90t295 -244l-334 -225q-131 164 -327 164t-322.5 -127t-126.5 -307.5t126 -307t308 -126.5q217 0 342 182v45h-387zM739 -238 q0 60 54.5 114t130 54t128 -53t52.5 -143q0 -139 -250 -379l-117 113l27 34q27 33 30 38l29 41q2 3 -22.5 26.5t-43 59t-18.5 95.5z" glyph-name="gcommaaccent" horiz-adv-x="2174" unicode="ģ"/><glyph d="M1186 1597h409v-155h97v-305h-97v-1137h-409v594h-651v-594h-408v1137h-96v305h96v155h408v-155h651v155zM535 1137v-160h651v160h-651z" glyph-name="Hbar" horiz-adv-x="2193" unicode="Ħ"/><glyph d="M1186 1597h409v-155h97v-305h-97v-1137h-409v594h-651v-594h-408v1137h-96v305h96v155h408v-155h651v155zM535 1137v-160h651v160h-651z" glyph-name="hbar" horiz-adv-x="2193" unicode="ħ"/><glyph d="M123 1597h409v-1597h-409v1597zM-86 1739q0 116 33 210.5t92 138.5t153 44t205 -80q60 -45 67 -20.5t5 61.5h272q0 -115 -32.5 -210t-92 -139t-153.5 -44t-205 80q-58 44 -66 20t-6 -61h-272z" glyph-name="Itilde" horiz-adv-x="1126" unicode="Ĩ"/><glyph d="M123 1597h409v-1597h-409v1597zM-86 1739q0 116 33 210.5t92 138.5t153 44t205 -80q60 -45 67 -20.5t5 61.5h272q0 -115 -32.5 -210t-92 -139t-153.5 -44t-205 80q-58 44 -66 20t-6 -61h-272z" glyph-name="itilde" horiz-adv-x="1126" unicode="ĩ"/><glyph d="M123 1597h409v-1597h-409v1597zM694 2003v-303h-733v303h733z" glyph-name="Imacron" horiz-adv-x="1126" unicode="Ī"/><glyph d="M123 1597h409v-1597h-409v1597zM694 2003v-303h-733v303h733z" glyph-name="imacron" horiz-adv-x="1126" unicode="ī"/><glyph d="M123 1597h409v-1597h-409v1597zM325 2011q132 0 214 127l241 -139q-63 -139 -179 -224t-275.5 -85t-274 85t-180.5 224l242 139q80 -127 212 -127z" glyph-name="Ibreve" horiz-adv-x="1126" unicode="Ĭ"/><glyph d="M123 1597h409v-1597h-409v1597zM325 2011q132 0 214 127l241 -139q-63 -139 -179 -224t-275.5 -85t-274 85t-180.5 224l242 139q80 -127 212 -127z" glyph-name="ibreve" horiz-adv-x="1126" unicode="ĭ"/><glyph d="M123 1597h409v-1597h-2q-182 -82 -182 -178q0 -41 35 -56.5t88 -5.5l47 -292q-188 -23 -312 54.5t-124 225.5t145 252h-104v1597z" glyph-name="Iogonek" horiz-adv-x="1126" unicode="Į"/><glyph d="M123 1597h409v-1597h-2q-182 -82 -182 -178q0 -41 35 -56.5t88 -5.5l47 -292q-188 -23 -312 54.5t-124 225.5t145 252h-104v1597z" glyph-name="iogonek" horiz-adv-x="1126" unicode="į"/><glyph d="M123 1597h409v-1597h-409v1597zM129 1878q0 82 58.5 140.5t140.5 58.5t139 -58.5t57 -140.5t-57 -140.5t-139 -58.5t-140.5 58.5t-58.5 140.5z" glyph-name="Idotaccent" horiz-adv-x="1126" unicode="İ"/><glyph d="M123 1597h409v-1597h-409v1597z" glyph-name="dotlessi" horiz-adv-x="1126" unicode="ı"/><glyph d="M123 1597h409v-1597h-409v1597zM1501 1597h408v-1005q0 -305 -171.5 -464t-433.5 -159t-439 160t-177 463v139h410v-133q0 -233 202 -233q98 0 149.5 50t51.5 183v999z" glyph-name="IJ" horiz-adv-x="2488" unicode="Ĳ"/><glyph d="M123 1597h409v-1597h-409v1597zM1501 1597h408v-1005q0 -305 -171.5 -464t-433.5 -159t-439 160t-177 463v139h410v-133q0 -233 202 -233q98 0 149.5 50t51.5 183v999z" glyph-name="ij" horiz-adv-x="2488" unicode="ĳ"/><glyph d="M846 1597h407v-1005q0 -305 -171 -464t-433 -159t-439 160t-177 463v139h409v-133q0 -233 203 -233q98 0 149.5 50t51.5 183v999zM1513 1909l-176 -219l-288 190l-293 -190l-174 219l467 366z" glyph-name="Jcircumflex" horiz-adv-x="1832" unicode="Ĵ"/><glyph d="M846 1597h407v-1005q0 -305 -171 -464t-433 -159t-439 160t-177 463v139h409v-133q0 -233 203 -233q98 0 149.5 50t51.5 183v999zM1513 1909l-176 -219l-288 190l-293 -190l-174 219l467 366z" glyph-name="jcircumflex" horiz-adv-x="1832" unicode="ĵ"/><glyph d="M123 0v1597h409v-550l496 550h528l-630 -686l663 -911h-508l-440 602l-109 -121v-481h-409zM672 -238q0 60 54 114t130 54t128 -53t52 -143q0 -139 -250 -379l-116 113q67 84 86 113q2 3 -22.5 26.5t-43 59t-18.5 95.5z" glyph-name="Kcommaaccent" horiz-adv-x="2043" unicode="Ķ"/><glyph d="M123 0v1597h409v-550l496 550h528l-630 -686l663 -911h-508l-440 602l-109 -121v-481h-409zM672 -238q0 60 54 114t130 54t128 -53t52 -143q0 -139 -250 -379l-116 113q67 84 86 113q2 3 -22.5 26.5t-43 59t-18.5 95.5z" glyph-name="kcommaaccent" horiz-adv-x="2043" unicode="ķ"/><glyph d="M123 0v1597h407v-1202h766v-395h-1173zM98 1675l-137 238l533 379l198 -344z" glyph-name="Lacute" horiz-adv-x="1794" unicode="Ĺ"/><glyph d="M123 0v1597h407v-1202h766v-395h-1173zM98 1675l-137 238l533 379l198 -344z" glyph-name="lacute" horiz-adv-x="1794" unicode="ĺ"/><glyph d="M123 0v1597h407v-1202h766v-395h-1173zM522 -238q0 60 54.5 114t130 54t128 -53t52.5 -143q0 -139 -250 -379l-117 113q67 84 86 113q2 3 -22.5 26.5t-43 59t-18.5 95.5z" glyph-name="Lcommaaccent" horiz-adv-x="1794" unicode="Ļ"/><glyph d="M123 0v1597h407v-1202h766v-395h-1173zM522 -238q0 60 54.5 114t130 54t128 -53t52.5 -143q0 -139 -250 -379l-117 113q67 84 86 113q2 3 -22.5 26.5t-43 59t-18.5 95.5z" glyph-name="lcommaaccent" horiz-adv-x="1794" unicode="ļ"/><glyph d="M123 0v1597h407v-1202h766v-395h-1173zM610 1468q0 60 54.5 114t130 54t128 -53t52.5 -143q0 -139 -250 -379l-117 113l27 34l31 38l28 41q2 3 -22.5 26.5t-43 59t-18.5 95.5z" glyph-name="Lcaron" horiz-adv-x="1794" unicode="Ľ"/><glyph d="M123 0v1597h407v-1202h766v-395h-1173zM610 1468q0 60 54.5 114t130 54t128 -53t52.5 -143q0 -139 -250 -379l-117 113l27 34l31 38l28 41q2 3 -22.5 26.5t-43 59t-18.5 95.5z" glyph-name="lcaron" horiz-adv-x="1794" unicode="ľ"/><glyph d="M123 0v1597h407v-1202h766v-395h-1173zM711 856q0 82 58 140.5t140 58.5t139.5 -58.5t57.5 -140.5t-57.5 -140.5t-139.5 -58.5t-140 58.5t-58 140.5z" glyph-name="Ldot" horiz-adv-x="1794" unicode="Ŀ"/><glyph d="M123 0v1597h407v-1202h766v-395h-1173zM711 856q0 82 58 140.5t140 58.5t139.5 -58.5t57.5 -140.5t-57.5 -140.5t-139.5 -58.5t-140 58.5t-58 140.5z" glyph-name="ldot" horiz-adv-x="1794" unicode="ŀ"/><glyph d="M139 1597h408v-499l377 172v-422l-377 -172v-281h766v-395h-1174v492l-125 -58v422l125 57v684z" glyph-name="Lslash" horiz-adv-x="1810" unicode="Ł"/><glyph d="M139 1597h408v-499l377 172v-422l-377 -172v-281h766v-395h-1174v492l-125 -58v422l125 57v684z" glyph-name="lslash" horiz-adv-x="1810" unicode="ł"/><glyph d="M532 0h-409v1597h348l713 -892v892h407v-1597h-346l-713 891v-891zM631 1675l-137 238l532 379l199 -344z" glyph-name="Nacute" horiz-adv-x="2185" unicode="Ń"/><glyph d="M532 0h-409v1597h348l713 -892v892h407v-1597h-346l-713 891v-891zM631 1675l-137 238l532 379l199 -344z" glyph-name="nacute" horiz-adv-x="2185" unicode="ń"/><glyph d="M532 0h-409v1597h348l713 -892v892h407v-1597h-346l-713 891v-891zM676 -238q0 60 54 114t130 54t128 -53t52 -143q1 -139 -249 -379l-117 113q67 84 86 113q2 3 -22.5 26.5t-43 59t-18.5 95.5z" glyph-name="Ncommaaccent" horiz-adv-x="2185" unicode="Ņ"/><glyph d="M532 0h-409v1597h348l713 -892v892h407v-1597h-346l-713 891v-891zM676 -238q0 60 54 114t130 54t128 -53t52 -143q1 -139 -249 -379l-117 113q67 84 86 113q2 3 -22.5 26.5t-43 59t-18.5 95.5z" glyph-name="ncommaaccent" horiz-adv-x="2185" unicode="ņ"/><glyph d="M532 0h-409v1597h348l713 -892v892h407v-1597h-346l-713 891v-891zM1147 2275l176 -219l-465 -366l-467 366l174 219l293 -188z" glyph-name="Ncaron" horiz-adv-x="2185" unicode="Ň"/><glyph d="M532 0h-409v1597h348l713 -892v892h407v-1597h-346l-713 891v-891zM1147 2275l176 -219l-465 -366l-467 366l174 219l293 -188z" glyph-name="ncaron" horiz-adv-x="2185" unicode="ň"/><glyph d="M532 0h-409v1597h348l713 -892v892h407v-1617q0 -154 -52 -277t-184 -234.5t-349 -111.5q-218 0 -367.5 115.5t-196.5 289.5l389 125q12 -68 66.5 -101.5t119.5 -33.5t116 50.5t51 183.5v90l-652 815v-891z" glyph-name="Eng" horiz-adv-x="2185" unicode="Ŋ"/><glyph d="M532 0h-409v1597h348l713 -892v892h407v-1617q0 -154 -52 -277t-184 -234.5t-349 -111.5q-218 0 -367.5 115.5t-196.5 289.5l389 125q12 -68 66.5 -101.5t119.5 -33.5t116 50.5t51 183.5v90l-652 815v-891z" glyph-name="eng" horiz-adv-x="2185" unicode="ŋ"/><glyph d="M47 799q0 342 251 585.5t599 243.5t597 -243.5t249 -585.5t-249 -586t-597 -244t-599 244t-251 586zM461 798.5q0 -180.5 127 -307t309 -126.5t307 125.5t125 308t-125 308.5t-307 126t-309 -127t-127 -307.5zM1264 2003v-303h-734v303h734z" glyph-name="Omacron" horiz-adv-x="2260" unicode="Ō"/><glyph d="M47 799q0 342 251 585.5t599 243.5t597 -243.5t249 -585.5t-249 -586t-597 -244t-599 244t-251 586zM461 798.5q0 -180.5 127 -307t309 -126.5t307 125.5t125 308t-125 308.5t-307 126t-309 -127t-127 -307.5zM1264 2003v-303h-734v303h734z" glyph-name="omacron" horiz-adv-x="2260" unicode="ō"/><glyph d="M47 799q0 342 251 585.5t599 243.5t597 -243.5t249 -585.5t-249 -586t-597 -244t-599 244t-251 586zM461 798.5q0 -180.5 127 -307t309 -126.5t307 125.5t125 308t-125 308.5t-307 126t-309 -127t-127 -307.5zM894 2011q132 0 214 127l242 -139q-63 -139 -179 -224 t-276 -85t-274.5 85t-180.5 224l242 139q80 -127 212 -127z" glyph-name="Obreve" horiz-adv-x="2260" unicode="Ŏ"/><glyph d="M47 799q0 342 251 585.5t599 243.5t597 -243.5t249 -585.5t-249 -586t-597 -244t-599 244t-251 586zM461 798.5q0 -180.5 127 -307t309 -126.5t307 125.5t125 308t-125 308.5t-307 126t-309 -127t-127 -307.5zM894 2011q132 0 214 127l242 -139q-63 -139 -179 -224 t-276 -85t-274.5 85t-180.5 224l242 139q80 -127 212 -127z" glyph-name="obreve" horiz-adv-x="2260" unicode="ŏ"/><glyph d="M47 799q0 342 251 585.5t599 243.5t597 -243.5t249 -585.5t-249 -586t-597 -244t-599 244t-251 586zM461 798.5q0 -180.5 127 -307t309 -126.5t307 125.5t125 308t-125 308.5t-307 126t-309 -127t-127 -307.5zM612 1782l-196 196l336 418l280 -280zM1163 1782l-194 196 l331 420l281 -280z" glyph-name="Ohungarumlaut" horiz-adv-x="2260" unicode="Ő"/><glyph d="M47 799q0 342 251 585.5t599 243.5t597 -243.5t249 -585.5t-249 -586t-597 -244t-599 244t-251 586zM461 798.5q0 -180.5 127 -307t309 -126.5t307 125.5t125 308t-125 308.5t-307 126t-309 -127t-127 -307.5zM612 1782l-196 196l336 418l280 -280zM1163 1782l-194 196 l331 420l281 -280z" glyph-name="ohungarumlaut" horiz-adv-x="2260" unicode="ő"/><glyph d="M948 0q-412 0 -655.5 231.5t-243.5 567.5q0 162 61.5 306t174 253.5t284.5 174t379 64.5h1383v-397h-818v-229h672v-371h-672v-205h818v-395h-1383zM463 798.5q0 -180.5 125 -292t360 -111.5h156v805h-156q-236 0 -360.5 -110.5t-124.5 -291z" glyph-name="OE" horiz-adv-x="2875" unicode="Œ"/><glyph d="M948 0q-412 0 -655.5 231.5t-243.5 567.5q0 162 61.5 306t174 253.5t284.5 174t379 64.5h1383v-397h-818v-229h672v-371h-672v-205h818v-395h-1383zM463 798.5q0 -180.5 125 -292t360 -111.5h156v805h-156q-236 0 -360.5 -110.5t-124.5 -291z" glyph-name="oe" horiz-adv-x="2875" unicode="œ"/><glyph d="M123 1597h780q293 0 445.5 -164.5t152.5 -418.5q0 -174 -80 -316.5t-235 -214.5l346 -483h-490l-303 428h-209v-428h-407v1597zM881 1225h-351v-426h351q115 0 170 59.5t55 151.5q0 215 -225 215zM598 1675l-137 238l532 379l199 -344z" glyph-name="Racute" horiz-adv-x="2039" unicode="Ŕ"/><glyph d="M123 1597h780q293 0 445.5 -164.5t152.5 -418.5q0 -174 -80 -316.5t-235 -214.5l346 -483h-490l-303 428h-209v-428h-407v1597zM881 1225h-351v-426h351q115 0 170 59.5t55 151.5q0 215 -225 215zM598 1675l-137 238l532 379l199 -344z" glyph-name="racute" horiz-adv-x="2039" unicode="ŕ"/><glyph d="M123 1597h780q293 0 445.5 -164.5t152.5 -418.5q0 -174 -80 -316.5t-235 -214.5l346 -483h-490l-303 428h-209v-428h-407v1597zM881 1225h-351v-426h351q115 0 170 59.5t55 151.5q0 215 -225 215zM641 -238q0 60 54.5 114t130 54t128 -53t52.5 -143q0 -139 -250 -379 l-117 113q67 84 86 113q2 3 -22.5 26.5t-43 59t-18.5 95.5z" glyph-name="Rcommaaccent" horiz-adv-x="2039" unicode="Ŗ"/><glyph d="M123 1597h780q293 0 445.5 -164.5t152.5 -418.5q0 -174 -80 -316.5t-235 -214.5l346 -483h-490l-303 428h-209v-428h-407v1597zM881 1225h-351v-426h351q115 0 170 59.5t55 151.5q0 215 -225 215zM641 -238q0 60 54.5 114t130 54t128 -53t52.5 -143q0 -139 -250 -379 l-117 113q67 84 86 113q2 3 -22.5 26.5t-43 59t-18.5 95.5z" glyph-name="rcommaaccent" horiz-adv-x="2039" unicode="ŗ"/><glyph d="M123 1597h780q293 0 445.5 -164.5t152.5 -418.5q0 -174 -80 -316.5t-235 -214.5l346 -483h-490l-303 428h-209v-428h-407v1597zM881 1225h-351v-426h351q115 0 170 59.5t55 151.5q0 215 -225 215zM1114 2275l176 -219l-465 -366l-467 366l174 219l293 -188z" glyph-name="Rcaron" horiz-adv-x="2039" unicode="Ř"/><glyph d="M123 1597h780q293 0 445.5 -164.5t152.5 -418.5q0 -174 -80 -316.5t-235 -214.5l346 -483h-490l-303 428h-209v-428h-407v1597zM881 1225h-351v-426h351q115 0 170 59.5t55 151.5q0 215 -225 215zM1114 2275l176 -219l-465 -366l-467 366l174 219l293 -188z" glyph-name="rcaron" horiz-adv-x="2039" unicode="ř"/><glyph d="M718 324q214 0 214 102q0 45 -60.5 82t-184.5 79t-188.5 66.5t-153.5 72.5t-142 100.5t-92 132t-39 174.5q0 225 174 360t454 135t465 -141t185 -375v-22h-400v14q0 66 -64.5 118t-170.5 52t-155.5 -32t-49.5 -77t56 -76.5t166 -70.5l148 -54q148 -54 253.5 -121.5 t172 -166.5t66.5 -232q0 -227 -176 -351t-466 -124t-480.5 131t-190.5 361v18h400v-10q0 -53 70.5 -99t188.5 -46zM469 1675l-137 238l532 379l199 -344z" glyph-name="Sacute" horiz-adv-x="1902" unicode="Ś"/><glyph d="M718 324q214 0 214 102q0 45 -60.5 82t-184.5 79t-188.5 66.5t-153.5 72.5t-142 100.5t-92 132t-39 174.5q0 225 174 360t454 135t465 -141t185 -375v-22h-400v14q0 66 -64.5 118t-170.5 52t-155.5 -32t-49.5 -77t56 -76.5t166 -70.5l148 -54q148 -54 253.5 -121.5 t172 -166.5t66.5 -232q0 -227 -176 -351t-466 -124t-480.5 131t-190.5 361v18h400v-10q0 -53 70.5 -99t188.5 -46zM469 1675l-137 238l532 379l199 -344z" glyph-name="sacute" horiz-adv-x="1902" unicode="ś"/><glyph d="M718 324q214 0 214 102q0 45 -60.5 82t-184.5 79t-188.5 66.5t-153.5 72.5t-142 100.5t-92 132t-39 174.5q0 225 174 360t454 135t465 -141t185 -375v-22h-400v14q0 66 -64.5 118t-170.5 52t-155.5 -32t-49.5 -77t56 -76.5t166 -70.5l148 -54q148 -54 253.5 -121.5 t172 -166.5t66.5 -232q0 -227 -176 -351t-466 -124t-480.5 131t-190.5 361v18h400v-10q0 -53 70.5 -99t188.5 -46zM1161 1909l-176 -219l-289 190l-293 -190l-174 219l467 366z" glyph-name="Scircumflex" horiz-adv-x="1902" unicode="Ŝ"/><glyph d="M718 324q214 0 214 102q0 45 -60.5 82t-184.5 79t-188.5 66.5t-153.5 72.5t-142 100.5t-92 132t-39 174.5q0 225 174 360t454 135t465 -141t185 -375v-22h-400v14q0 66 -64.5 118t-170.5 52t-155.5 -32t-49.5 -77t56 -76.5t166 -70.5l148 -54q148 -54 253.5 -121.5 t172 -166.5t66.5 -232q0 -227 -176 -351t-466 -124t-480.5 131t-190.5 361v18h400v-10q0 -53 70.5 -99t188.5 -46zM1161 1909l-176 -219l-289 190l-293 -190l-174 219l467 366z" glyph-name="scircumflex" horiz-adv-x="1902" unicode="ŝ"/><glyph d="M825 -113q166 -53 166 -253q0 -98 -73.5 -172t-206.5 -74q-61 0 -134 16t-114 33l-43 16l106 246q102 -51 173 -51t71 47q0 23 -18.5 40t-65.5 1l-98 88l57 149q-262 20 -424 148.5t-162 339.5v18h400v-10q0 -53 70.5 -99t188.5 -46q214 0 214 102q0 45 -60.5 82 t-184.5 79t-188.5 66.5t-153.5 72.5t-142 100.5t-92 132t-39 174.5q0 225 174 360t454 135t465 -141t185 -375v-22h-400v14q0 66 -64.5 118t-170.5 52t-155.5 -32t-49.5 -77t56 -76.5t166 -70.5l148 -54q148 -54 253.5 -121.5t172 -166.5t66.5 -232q0 -205 -145.5 -326.5 t-384.5 -142.5z" glyph-name="Scedilla" horiz-adv-x="1902" unicode="Ş"/><glyph d="M825 -113q166 -53 166 -253q0 -98 -73.5 -172t-206.5 -74q-61 0 -134 16t-114 33l-43 16l106 246q102 -51 173 -51t71 47q0 23 -18.5 40t-65.5 1l-98 88l57 149q-262 20 -424 148.5t-162 339.5v18h400v-10q0 -53 70.5 -99t188.5 -46q214 0 214 102q0 45 -60.5 82 t-184.5 79t-188.5 66.5t-153.5 72.5t-142 100.5t-92 132t-39 174.5q0 225 174 360t454 135t465 -141t185 -375v-22h-400v14q0 66 -64.5 118t-170.5 52t-155.5 -32t-49.5 -77t56 -76.5t166 -70.5l148 -54q148 -54 253.5 -121.5t172 -166.5t66.5 -232q0 -205 -145.5 -326.5 t-384.5 -142.5z" glyph-name="scedilla" horiz-adv-x="1902" unicode="ş"/><glyph d="M718 324q214 0 214 102q0 45 -60.5 82t-184.5 79t-188.5 66.5t-153.5 72.5t-142 100.5t-92 132t-39 174.5q0 225 174 360t454 135t465 -141t185 -375v-22h-400v14q0 66 -64.5 118t-170.5 52t-155.5 -32t-49.5 -77t56 -76.5t166 -70.5l148 -54q148 -54 253.5 -121.5 t172 -166.5t66.5 -232q0 -227 -176 -351t-466 -124t-480.5 131t-190.5 361v18h400v-10q0 -53 70.5 -99t188.5 -46zM987 2275l176 -219l-465 -366l-467 366l175 219l292 -188z" glyph-name="Scaron" horiz-adv-x="1902" unicode="Š"/><glyph d="M718 324q214 0 214 102q0 45 -60.5 82t-184.5 79t-188.5 66.5t-153.5 72.5t-142 100.5t-92 132t-39 174.5q0 225 174 360t454 135t465 -141t185 -375v-22h-400v14q0 66 -64.5 118t-170.5 52t-155.5 -32t-49.5 -77t56 -76.5t166 -70.5l148 -54q148 -54 253.5 -121.5 t172 -166.5t66.5 -232q0 -227 -176 -351t-466 -124t-480.5 131t-190.5 361v18h400v-10q0 -53 70.5 -99t188.5 -46zM987 2275l176 -219l-465 -366l-467 366l175 219l292 -188z" glyph-name="scaron" horiz-adv-x="1902" unicode="š"/><glyph d="M25 1200v397h1405v-397h-498v-1200h-410v1200h-497zM541 -238q0 60 54 114t130 54t128 -53t52 -143q0 -139 -250 -379l-116 113q67 84 86 113q2 3 -22.5 26.5t-43 59t-18.5 95.5z" glyph-name="Tcommaaccent" horiz-adv-x="1925" unicode="Ţ"/><glyph d="M25 1200v397h1405v-397h-498v-1200h-410v1200h-497zM541 -238q0 60 54 114t130 54t128 -53t52 -143q0 -139 -250 -379l-116 113q67 84 86 113q2 3 -22.5 26.5t-43 59t-18.5 95.5z" glyph-name="tcommaaccent" horiz-adv-x="1925" unicode="ţ"/><glyph d="M25 1200v397h1405v-397h-498v-1200h-410v1200h-497zM1014 2275l176 -219l-465 -366l-467 366l174 219l293 -188z" glyph-name="Tcaron" horiz-adv-x="1925" unicode="Ť"/><glyph d="M25 1200v397h1405v-397h-498v-1200h-410v1200h-497zM1014 2275l176 -219l-465 -366l-467 366l174 219l293 -188z" glyph-name="tcaron" horiz-adv-x="1925" unicode="ť"/><glyph d="M35 1200v397h1405v-397h-498v-387h248v-303h-248v-510h-410v510h-249v303h249v387h-497z" glyph-name="Tbar" horiz-adv-x="1943" unicode="Ŧ"/><glyph d="M35 1200v397h1405v-397h-498v-387h248v-303h-248v-510h-410v510h-249v303h249v387h-497z" glyph-name="tbar" horiz-adv-x="1943" unicode="ŧ"/><glyph d="M1161 1597h408v-899q0 -319 -194.5 -524t-541.5 -205t-540 204t-193 525v899h410v-874q0 -174 82 -266t241.5 -92t243.5 92t84 266v874zM422 1739q0 115 32.5 210t92 139t153.5 44t205 -80q60 -45 67 -20.5t5 61.5h272q0 -115 -32.5 -210t-92 -139t-153.5 -44t-205 80 q-60 45 -67 20.5t-5 -61.5h-272z" glyph-name="Utilde" horiz-adv-x="2140" unicode="Ũ"/><glyph d="M1161 1597h408v-899q0 -319 -194.5 -524t-541.5 -205t-540 204t-193 525v899h410v-874q0 -174 82 -266t241.5 -92t243.5 92t84 266v874zM422 1739q0 115 32.5 210t92 139t153.5 44t205 -80q60 -45 67 -20.5t5 61.5h272q0 -115 -32.5 -210t-92 -139t-153.5 -44t-205 80 q-60 45 -67 20.5t-5 -61.5h-272z" glyph-name="utilde" horiz-adv-x="2140" unicode="ũ"/><glyph d="M1161 1597h408v-899q0 -319 -194.5 -524t-541.5 -205t-540 204t-193 525v899h410v-874q0 -174 82 -266t241.5 -92t243.5 92t84 266v874zM1202 2003v-303h-733v303h733z" glyph-name="Umacron" horiz-adv-x="2140" unicode="Ū"/><glyph d="M1161 1597h408v-899q0 -319 -194.5 -524t-541.5 -205t-540 204t-193 525v899h410v-874q0 -174 82 -266t241.5 -92t243.5 92t84 266v874zM1202 2003v-303h-733v303h733z" glyph-name="umacron" horiz-adv-x="2140" unicode="ū"/><glyph d="M1161 1597h408v-899q0 -319 -194.5 -524t-541.5 -205t-540 204t-193 525v899h410v-874q0 -174 82 -266t241.5 -92t243.5 92t84 266v874zM833 2011q132 0 214 127l241 -139q-63 -139 -179 -224t-275.5 -85t-274 85t-180.5 224l242 139q80 -127 212 -127z" glyph-name="Ubreve" horiz-adv-x="2140" unicode="Ŭ"/><glyph d="M1161 1597h408v-899q0 -319 -194.5 -524t-541.5 -205t-540 204t-193 525v899h410v-874q0 -174 82 -266t241.5 -92t243.5 92t84 266v874zM833 2011q132 0 214 127l241 -139q-63 -139 -179 -224t-275.5 -85t-274 85t-180.5 224l242 139q80 -127 212 -127z" glyph-name="ubreve" horiz-adv-x="2140" unicode="ŭ"/><glyph d="M1161 1597h408v-899q0 -319 -194.5 -524t-541.5 -205t-540 204t-193 525v899h410v-874q0 -174 82 -266t241.5 -92t243.5 92t84 266v874zM494 1988q0 140 99 240.5t238.5 100.5t241 -101.5t101.5 -241t-101.5 -238.5t-241 -99t-238.5 99.5t-99 239.5zM733 1987 q0 -41 29 -70t69.5 -29t69.5 29t29 70t-29 69.5t-69.5 28.5t-69.5 -28.5t-29 -69.5z" glyph-name="Uring" horiz-adv-x="2140" unicode="Ů"/><glyph d="M1161 1597h408v-899q0 -319 -194.5 -524t-541.5 -205t-540 204t-193 525v899h410v-874q0 -174 82 -266t241.5 -92t243.5 92t84 266v874zM494 1988q0 140 99 240.5t238.5 100.5t241 -101.5t101.5 -241t-101.5 -238.5t-241 -99t-238.5 99.5t-99 239.5zM733 1987 q0 -41 29 -70t69.5 -29t69.5 29t29 70t-29 69.5t-69.5 28.5t-69.5 -28.5t-29 -69.5z" glyph-name="uring" horiz-adv-x="2140" unicode="ů"/><glyph d="M1161 1597h408v-899q0 -319 -194.5 -524t-541.5 -205t-540 204t-193 525v899h410v-874q0 -174 82 -266t241.5 -92t243.5 92t84 266v874zM551 1782l-197 196l336 418l281 -280zM1102 1782l-195 196l332 420l281 -280z" glyph-name="Uhungarumlaut" horiz-adv-x="2140" unicode="Ű"/><glyph d="M1161 1597h408v-899q0 -319 -194.5 -524t-541.5 -205t-540 204t-193 525v899h410v-874q0 -174 82 -266t241.5 -92t243.5 92t84 266v874zM551 1782l-197 196l336 418l281 -280zM1102 1782l-195 196l332 420l281 -280z" glyph-name="uhungarumlaut" horiz-adv-x="2140" unicode="ű"/><glyph d="M1161 1597h408v-899q0 -270 -142.5 -463.5t-402.5 -246.5q-156 -76 -156 -166q0 -41 35 -56.5t88 -5.5l47 -292q-188 -23 -312 54t-124 216t115 237q-295 35 -456 234t-161 489v899h410v-874q0 -174 82 -266t241.5 -92t243.5 92t84 266v874z" glyph-name="Uogonek" horiz-adv-x="2140" unicode="Ų"/><glyph d="M1161 1597h408v-899q0 -270 -142.5 -463.5t-402.5 -246.5q-156 -76 -156 -166q0 -41 35 -56.5t88 -5.5l47 -292q-188 -23 -312 54t-124 216t115 237q-295 35 -456 234t-161 489v899h410v-874q0 -174 82 -266t241.5 -92t243.5 92t84 266v874z" glyph-name="uogonek" horiz-adv-x="2140" unicode="ų"/><glyph d="M870 0h-424l-448 1597h436l258 -952l299 952h365l299 -950l258 950h438l-448 -1597h-424l-305 928zM1638 1909l-176 -219l-288 190l-293 -190l-174 219l467 366z" glyph-name="Wcircumflex" horiz-adv-x="2820" unicode="Ŵ"/><glyph d="M870 0h-424l-448 1597h436l258 -952l299 952h365l299 -950l258 950h438l-448 -1597h-424l-305 928zM1638 1909l-176 -219l-288 190l-293 -190l-174 219l467 366z" glyph-name="wcircumflex" horiz-adv-x="2820" unicode="ŵ"/><glyph d="M1038 0h-407v586l-631 1011h481l353 -579l354 579h483l-633 -1011v-586zM1298 1909l-176 -219l-288 190l-293 -190l-174 219l467 366z" glyph-name="ycircumflex" horiz-adv-x="2142" unicode="ŷ"/><glyph d="M1038 0h-407v586l-631 1011h481l353 -579l354 579h483l-633 -1011v-586zM379 1899q0 82 58.5 140t140 58t139 -58.5t57.5 -140.5t-57.5 -140t-139 -58t-140 58.5t-58.5 140.5zM895 1899q0 82 58.5 140t140.5 58t139 -58.5t57 -140.5t-57 -140t-139 -58t-140.5 58.5 t-58.5 140.5z" glyph-name="Ydieresis" horiz-adv-x="2142" unicode="Ÿ"/><glyph d="M88 1200v397h1329v-299l-745 -903h747v-395h-1356v299l744 901h-719zM514 1675l-137 238l532 379l199 -344z" glyph-name="Zacute" horiz-adv-x="1964" unicode="Ź"/><glyph d="M88 1200v397h1329v-299l-745 -903h747v-395h-1356v299l744 901h-719zM514 1675l-137 238l532 379l199 -344z" glyph-name="zacute" horiz-adv-x="1964" unicode="ź"/><glyph d="M88 1200v397h1329v-299l-745 -903h747v-395h-1356v299l744 901h-719zM545 1878q0 82 58.5 140.5t140 58.5t139 -58.5t57.5 -140.5t-57.5 -140.5t-139 -58.5t-140 58.5t-58.5 140.5z" glyph-name="Zdotaccent" horiz-adv-x="1964" unicode="Ż"/><glyph d="M88 1200v397h1329v-299l-745 -903h747v-395h-1356v299l744 901h-719zM545 1878q0 82 58.5 140.5t140 58.5t139 -58.5t57.5 -140.5t-57.5 -140.5t-139 -58.5t-140 58.5t-58.5 140.5z" glyph-name="zdotaccent" horiz-adv-x="1964" unicode="ż"/><glyph d="M88 1200v397h1329v-299l-745 -903h747v-395h-1356v299l744 901h-719zM1030 2275l176 -219l-465 -366l-467 366l175 219l292 -188z" glyph-name="Zcaron" horiz-adv-x="1964" unicode="Ž"/><glyph d="M88 1200v397h1329v-299l-745 -903h747v-395h-1356v299l744 901h-719zM1030 2275l176 -219l-465 -366l-467 366l175 219l292 -188z" glyph-name="zcaron" horiz-adv-x="1964" unicode="ž"/><glyph d="M1321 0v233h-631l-184 -233h-526l1284 1597h1284v-397h-819v-229h673v-371h-673v-205h819v-395h-1227zM1321 604v430l-340 -430h340zM1458 1675l-137 238l532 379l199 -344z" glyph-name="AEacute" horiz-adv-x="3094" unicode="Ǽ"/><glyph d="M1321 0v233h-631l-184 -233h-526l1284 1597h1284v-397h-819v-229h673v-371h-673v-205h819v-395h-1227zM1321 604v430l-340 -430h340zM1458 1675l-137 238l532 379l199 -344z" glyph-name="aeacute" horiz-adv-x="3094" unicode="ǽ"/><glyph d="M668 1675l-138 238l533 379l199 -344zM47 807q0 334 250 577.5t598 243.5q213 0 410 -104l59 73h346l-192 -239q225 -238 225 -570t-250 -575.5t-598 -243.5q-217 0 -410 105l-59 -74h-346l190 238q-223 235 -223 569zM1329 799q0 129 -69 237l-521 -645q72 -27 156 -26 q182 0 308 126t126 308zM461 799q0 -133 69 -238l519 643q-76 29 -154 29q-182 0 -308 -127t-126 -307z" glyph-name="Oslashacute" horiz-adv-x="2258" unicode="Ǿ"/><glyph d="M668 1675l-138 238l533 379l199 -344zM47 807q0 334 250 577.5t598 243.5q213 0 410 -104l59 73h346l-192 -239q225 -238 225 -570t-250 -575.5t-598 -243.5q-217 0 -410 105l-59 -74h-346l190 238q-223 235 -223 569zM1329 799q0 129 -69 237l-521 -645q72 -27 156 -26 q182 0 308 126t126 308zM461 799q0 -133 69 -238l519 643q-76 29 -154 29q-182 0 -308 -127t-126 -307z" glyph-name="oslashacute" horiz-adv-x="2258" unicode="ǿ"/><glyph d="M718 324q214 0 214 102q0 45 -60.5 82t-184.5 79t-188.5 66.5t-153.5 72.5t-142 100.5t-92 132t-39 174.5q0 225 174 360t454 135t465 -141t185 -375v-22h-400v14q0 66 -64.5 118t-170.5 52t-155.5 -32t-49.5 -77t56 -76.5t166 -70.5l148 -54q148 -54 253.5 -121.5 t172 -166.5t66.5 -232q0 -227 -176 -351t-466 -124t-480.5 131t-190.5 361v18h400v-10q0 -53 70.5 -99t188.5 -46zM551 -238q0 60 54 114t130 54t128 -53t52 -143q1 -139 -249 -379l-117 113q67 84 86 113q2 3 -22.5 26.5t-43 59t-18.5 95.5z" glyph-name="Scommaaccent" horiz-adv-x="1902" unicode="Ș"/><glyph d="M718 324q214 0 214 102q0 45 -60.5 82t-184.5 79t-188.5 66.5t-153.5 72.5t-142 100.5t-92 132t-39 174.5q0 225 174 360t454 135t465 -141t185 -375v-22h-400v14q0 66 -64.5 118t-170.5 52t-155.5 -32t-49.5 -77t56 -76.5t166 -70.5l148 -54q148 -54 253.5 -121.5 t172 -166.5t66.5 -232q0 -227 -176 -351t-466 -124t-480.5 131t-190.5 361v18h400v-10q0 -53 70.5 -99t188.5 -46zM551 -238q0 60 54 114t130 54t128 -53t52 -143q1 -139 -249 -379l-117 113q67 84 86 113q2 3 -22.5 26.5t-43 59t-18.5 95.5z" glyph-name="scommaaccent" horiz-adv-x="1902" unicode="ș"/><glyph d="M971 1909l-176 -219l-289 190l-293 -190l-174 219l467 366z" glyph-name="circumflex" horiz-adv-x="1480" unicode="ˆ"/><glyph d="M795 2275l176 -219l-465 -366l-467 366l174 219l293 -188z" glyph-name="caron" horiz-adv-x="1480" unicode="ˇ"/><glyph d="M454 2011q132 0 214 127l241 -139q-63 -139 -179 -224t-275.5 -85t-274 85t-180.5 224l242 139q80 -127 212 -127z" glyph-name="breve" horiz-adv-x="1380" unicode="˘"/><glyph d="M0 1878q0 82 58.5 140.5t140.5 58.5t139 -58.5t57 -140.5t-57 -140.5t-139 -58.5t-140.5 58.5t-58.5 140.5z" glyph-name="dotaccent" horiz-adv-x="866" unicode="˙"/><glyph d="M0 1988q0 140 99.5 240.5t238.5 100.5t240.5 -101.5t101.5 -241t-101.5 -238.5t-240.5 -99t-238.5 99.5t-99.5 239.5zM240 1987q0 -41 28.5 -70t69.5 -29t69.5 29t28.5 70t-28.5 69.5t-69.5 28.5t-69.5 -28.5t-28.5 -69.5z" glyph-name="ring" horiz-adv-x="1150" unicode="˚"/><glyph d="M0 -256q0 236 387 377l62 -121q-182 -82 -183 -178q0 -41 35 -56.5t88 -5.5l47 -292q-188 -23 -312 54t-124 222z" glyph-name="ogonek" horiz-adv-x="907" unicode="˛"/><glyph d="M68 1739q0 115 32.5 210t92 139t153.5 44t205 -80q58 -44 66 -20t6 61h272q0 -116 -33 -210.5t-92 -138.5t-153 -44t-205 80q-60 45 -67 20.5t-5 -61.5h-272z" glyph-name="tilde" horiz-adv-x="1433" unicode="˜"/><glyph d="M197 1782l-197 196l336 418l280 -280zM748 1782l-195 196l332 420l280 -280z" glyph-name="hungarumlaut" horiz-adv-x="1636" unicode="˝"/><glyph d="M870 0h-424l-448 1597h436l258 -952l299 952h365l299 -950l258 950h438l-448 -1597h-424l-305 928zM1540 1913l-137 -238l-594 273l199 344z" glyph-name="Wgrave" horiz-adv-x="2820" unicode="Ẁ"/><glyph d="M870 0h-424l-448 1597h436l258 -952l299 952h365l299 -950l258 950h438l-448 -1597h-424l-305 928zM1540 1913l-137 -238l-594 273l199 344z" glyph-name="wgrave" horiz-adv-x="2820" unicode="ẁ"/><glyph d="M870 0h-424l-448 1597h436l258 -952l299 952h365l299 -950l258 950h438l-448 -1597h-424l-305 928zM946 1675l-137 238l532 379l199 -344z" glyph-name="Wacute" horiz-adv-x="2820" unicode="Ẃ"/><glyph d="M870 0h-424l-448 1597h436l258 -952l299 952h365l299 -950l258 950h438l-448 -1597h-424l-305 928zM946 1675l-137 238l532 379l199 -344z" glyph-name="wacute" horiz-adv-x="2820" unicode="ẃ"/><glyph d="M870 0h-424l-448 1597h436l258 -952l299 952h365l299 -950l258 950h438l-448 -1597h-424l-305 928zM719 1899q0 82 58.5 140t140 58t139 -58.5t57.5 -140.5t-57.5 -140t-139 -58t-140 58.5t-58.5 140.5zM1235 1899q0 82 58.5 140t140.5 58t139 -58.5t57 -140.5t-57 -140 t-139 -58t-140.5 58.5t-58.5 140.5z" glyph-name="Wdieresis" horiz-adv-x="2820" unicode="Ẅ"/><glyph d="M870 0h-424l-448 1597h436l258 -952l299 952h365l299 -950l258 950h438l-448 -1597h-424l-305 928zM719 1899q0 82 58.5 140t140 58t139 -58.5t57.5 -140.5t-57.5 -140t-139 -58t-140 58.5t-58.5 140.5zM1235 1899q0 82 58.5 140t140.5 58t139 -58.5t57 -140.5t-57 -140 t-139 -58t-140.5 58.5t-58.5 140.5z" glyph-name="wdieresis" horiz-adv-x="2820" unicode="ẅ"/><glyph d="M1167 336q90 0 145.5 45t55.5 113q0 104 -114.5 148t-299.5 -3l-202 279l407 317q-125 39 -307 39t-272.5 -91t-90.5 -235v-948h-385v979q0 268 134.5 411.5t280 200t317.5 56.5t397 -41t418 -105v-291l-320 -247q150 -25 249 -106t141 -168t42 -191q0 -221 -164.5 -375 t-414.5 -154q-178 0 -340 75t-264 216l327 207q98 -131 260 -131z" glyph-name="uni1E9E" horiz-adv-x="2281" unicode="ẞ"/><glyph d="M1038 0h-407v586l-631 1011h481l353 -579l354 579h483l-633 -1011v-586zM1200 1913l-137 -238l-594 273l199 344z" glyph-name="Ygrave" horiz-adv-x="2142" unicode="Ỳ"/><glyph d="M1038 0h-407v586l-631 1011h481l353 -579l354 579h483l-633 -1011v-586zM1200 1913l-137 -238l-594 273l199 344z" glyph-name="ygrave" horiz-adv-x="2142" unicode="ỳ"/><glyph d="M1182 858v-383h-1065v383h1065z" glyph-name="endash" horiz-adv-x="1767" unicode="–"/><glyph d="M1507 858v-383h-1390v383h1390z" glyph-name="emdash" horiz-adv-x="2093" unicode="—"/><glyph d="M569 1065q0 -106 -75.5 -182t-182 -76t-181.5 75.5t-75 202.5q0 218 375 566l160 -156q-111 -119 -152 -197l29 -24q29 -27 47 -49.5t36.5 -66.5t18.5 -93z" glyph-name="quoteleft" horiz-adv-x="1130" unicode="‘"/><glyph d="M96 1368q0 106 76 182t182.5 76t181 -75.5t74.5 -202.5q1 -218 -374 -566l-160 156q111 119 151 197l-28 24q-29 27 -47.5 49.5t-37 66.5t-18.5 93z" glyph-name="quoteright" horiz-adv-x="1122" unicode="’"/><glyph d="M72 223q0 106 75.5 182t182 76t181.5 -75.5t75 -202.5q0 -217 -375 -565l-160 155q111 119 152 197l-29 26q-29 25 -47 47.5t-36.5 66.5t-18.5 93z" glyph-name="quotesinglbase" horiz-adv-x="1132" unicode="‚"/><glyph d="M569 1065q0 -106 -75.5 -182t-182 -76t-181.5 75.5t-75 202.5q0 218 375 566l160 -156q-111 -119 -152 -197l29 -24q29 -27 47 -49.5t36.5 -66.5t18.5 -93zM1118 1065q0 -106 -75.5 -182t-182 -76t-181.5 75.5t-75 202.5q0 218 375 566l160 -156q-111 -119 -152 -197 l29 -24q29 -27 47 -49.5t36.5 -66.5t18.5 -93z" glyph-name="quotedblleft" horiz-adv-x="1679" unicode="“"/><glyph d="M96 1368q0 106 76 182t182.5 76t181 -75.5t74.5 -202.5q1 -218 -374 -566l-160 156q111 119 151 197l-28 24q-29 27 -47.5 49.5t-37 66.5t-18.5 93zM647 1368q0 106 76 182t182.5 76t181 -75.5t74.5 -202.5q0 -218 -375 -566l-159 156q111 119 151 197l-28 24 q-29 27 -47.5 49.5t-37 66.5t-18.5 93z" glyph-name="quotedblright" horiz-adv-x="1673" unicode="”"/><glyph d="M72 223q0 106 75.5 182t182 76t181.5 -75.5t75 -202.5q0 -217 -375 -565l-160 155q111 119 152 197l-29 26q-29 25 -47 47.5t-36.5 66.5t-18.5 93zM623 223q0 106 75.5 182t182 76t181.5 -75.5t75 -202.5q0 -217 -375 -565l-160 155q111 119 152 197l-29 26 q-29 25 -47.5 47.5t-36.5 66.5t-18 93z" glyph-name="quotedblbase" horiz-adv-x="1683" unicode="„"/><glyph d="M242 1368.5q0 106.5 75.5 182t182 75.5t182.5 -76t76 -180t-70 -178v-111h238v-307h-238v-1075h-373v1075h-239v307h239v107q-73 74 -73 180.5z" glyph-name="dagger" horiz-adv-x="1472" unicode="†"/><glyph d="M248 1368.5q0 106.5 75.5 182t182 75.5t182.5 -76t76 -180t-70 -178v-111h238v-307h-238v-123h238v-307h-238v-645h-372v645h-240v307h240v123h-240v307h240v107q-74 74 -74 180.5z" glyph-name="daggerdbl" horiz-adv-x="1484" unicode="‡"/><glyph d="M137 664q0 133 97.5 229t229.5 96t229.5 -96t97.5 -229t-97.5 -230.5t-230.5 -97.5t-229.5 97.5t-96.5 230.5z" glyph-name="bullet" horiz-adv-x="1396" unicode="•"/><glyph d="M70 223.5q0 106.5 75.5 182t182 75.5t182.5 -75.5t76 -182t-76 -182.5t-182.5 -76t-182 76t-75.5 182.5zM659 223.5q0 106.5 76 182t182.5 75.5t182.5 -75.5t76 -182t-76 -182.5t-182.5 -76t-182.5 76t-76 182.5zM1241 223.5q0 106.5 76 182t182.5 75.5t182 -75.5 t75.5 -182t-75.5 -182.5t-182 -76t-182.5 76t-76 182.5z" glyph-name="ellipsis" horiz-adv-x="2297" unicode="…"/><glyph d="M72 1179.5q0 186.5 131 317.5t316 131t317.5 -131t132.5 -316t-131.5 -316.5t-317.5 -131.5t-317 130t-131 316.5zM414 1180q0 -45 30.5 -76t75.5 -31t77 31t32 76t-32 76.5t-77 31.5t-75.5 -31.5t-30.5 -76.5zM1268 409.5q0 186.5 131 317.5t316 131t317.5 -131 t132.5 -316t-131.5 -316.5t-317.5 -131.5t-317 130t-131 316.5zM1610 410q0 -45 30.5 -76t75.5 -31t77 31t32 76t-32 76.5t-77 31.5t-75.5 -31.5t-30.5 -76.5zM768 0h-444l1151 1597h444zM2216 409.5q0 186.5 131 317.5t316 131t317.5 -131t132.5 -316t-131.5 -316.5 t-317.5 -131.5t-317 130t-131 316.5zM2558 410q0 -45 30.5 -76t76 -31t77 31t31.5 76t-31.5 76.5t-77 31.5t-76 -31.5t-30.5 -76.5z" glyph-name="perthousand" horiz-adv-x="3651" unicode="‰"/><glyph d="M98 590v317l580 514v-483l-213 -188l213 -191v-481z" glyph-name="guilsinglleft" horiz-adv-x="1284" unicode="‹"/><glyph d="M715 909v-317l-580 -514v483l213 189l-213 190v481z" glyph-name="guilsinglright" horiz-adv-x="1284" unicode="›"/><glyph d="M381 0h-432l946 1597h432z" glyph-name="fraction" horiz-adv-x="1746" unicode="⁄"/><glyph d="M43 1078q0 222 121 381t337 159t339 -159t123 -381t-123 -380.5t-339 -158.5t-337 158.5t-121 380.5zM326 1078q0 -122 49 -194.5t126 -72.5t128 72.5t51 194.5t-51 193.5t-128 71.5t-126 -71.5t-49 -193.5z" glyph-name="uni2070" horiz-adv-x="1476" unicode="⁰"/><glyph d="M786 559h-274v174h-492v219l381 645h314l-353 -598h150v187h274v-187h105v-266h-105v-174z" glyph-name="uni2074" horiz-adv-x="1388" unicode="⁴"/><glyph d="M788 1597v-286h-401l-14 -72q45 16 137 16q154 0 254 -98t100 -253t-119.5 -260t-300.5 -105q-139 0 -248.5 64.5t-175.5 164.5l240 141q80 -94 182 -94q61 0 97 26.5t36 66.5t-25.5 69t-91.5 29t-147 -74l-239 112l104 553h612z" glyph-name="uni2075" horiz-adv-x="1376" unicode="⁵"/><glyph d="M868 928q0 -156 -119.5 -272.5t-293.5 -116.5t-296 115.5t-122 265.5t104 288l301 389h344l-243 -319q141 -12 233 -103t92 -247zM313 932q0 -45 39.5 -81t99.5 -36t100 37t40 88t-40 87t-102 36t-110 -51q-27 -35 -27 -80z" glyph-name="uni2076" horiz-adv-x="1374" unicode="⁶"/><glyph d="M43 1315v282h743v-227l-421 -811h-322l416 756h-416z" glyph-name="uni2077" horiz-adv-x="1269" unicode="⁷"/><glyph d="M41 876q0 152 135 234q-92 70 -92 203t114.5 219t274.5 86t274.5 -86t114.5 -219t-96 -203q137 -84 137 -234t-126 -243.5t-305 -93.5t-305 92.5t-126 244.5zM330 894q0 -42 39 -74t104.5 -32t103 32t37.5 73t-37.5 73.5t-103 32.5t-104.5 -31.5t-39 -73.5zM362 1295 q0 -34 30 -60.5t81 -26.5t79 27t28 61t-29 59t-79 25t-80 -25.5t-30 -59.5z" glyph-name="uni2078" horiz-adv-x="1415" unicode="⁸"/><glyph d="M35 1228q0 156 119.5 273t293.5 117t296 -116t122 -266t-104 -288l-301 -389h-344l243 320q-141 12 -233 102.5t-92 246.5zM590 1224q0 44 -40 80.5t-99 36.5t-99.5 -36.5t-40.5 -88.5t40.5 -87t102.5 -35t109 51q27 35 27 79z" glyph-name="uni2079" horiz-adv-x="1372" unicode="⁹"/><glyph d="M596 825v-26q0 -29 2 -43h479v-267h-352q125 -125 305 -124q125 0 226.5 61.5t156.5 165.5l375 -164q-106 -207 -310 -333t-456 -126t-467 144.5t-311 375.5h-158v267h98q-2 14 -2 43v26h-96v267h152q94 238 311 387t471 149t455.5 -125t310.5 -329l-373 -168 q-55 102 -157.5 164.5t-225.5 62.5q-190 0 -321 -141h454v-267h-567z" glyph-name="Euro" horiz-adv-x="2334" unicode="€"/><glyph d="M1653 918h-285v237l-94 -166h-92l-92 164v-235h-287v679h297l127 -231l131 231h295v-679zM84 1315v282h664v-282h-189v-397h-287v397h-188z" glyph-name="trademark" horiz-adv-x="2250" unicode="™"/><glyph d="M1069 934v-371h-952v371h952z" glyph-name="minus" horiz-adv-x="1656" unicode="−"/><glyph d="M733 901q0 -43 -31.5 -66.5t-83.5 -23.5q-98 0 -196 111q-78 -16 -131 -91t-53 -184q0 -180 152.5 -309t426.5 -129t453.5 123t179.5 310t-127 314q-174 -14 -267 -53t-98 -137q-2 -63 32 -94t71 -29q-45 33 -42 91t37 89t84 31t86 -35t36 -99t-51.5 -108.5t-137.5 -44.5 t-157.5 67.5t-71.5 189.5t73.5 198t183 102.5t237.5 48t238 35t183.5 57t73.5 117.5t-57.5 112t-119.5 38t-69 -27q66 -39 66 -101t-36 -97t-91 -35t-89 39t-34 99t63.5 127t177.5 67t195.5 -80t81.5 -221q0 -190 -144.5 -256.5t-369.5 -81.5q156 -145 156 -390 q0 -197 -111 -343t-275.5 -215.5t-351.5 -69.5q-311 0 -528 187.5t-217 461.5q0 160 75.5 263.5t196.5 148.5q-72 100 -71 237q0 172 116.5 275.5t268.5 103.5t252 -84t100 -205q0 -78 -43 -124t-105 -46t-97.5 37.5t-35.5 93.5t55.5 88.5t120.5 -10.5q6 10 7 23 q0 43 -57.5 85t-135.5 42q-115 0 -198 -89t-83 -229q0 -88 39 -172h37q82 0 146.5 -33.5t64.5 -99.5z" glyph-name="uniE001" horiz-adv-x="2424" unicode=""/><glyph d="M115 1143v250h164l38 204h258l-38 -204h125l36 204h260l-38 -204h118v-250h-164l-24 -131h117v-250h-162l-37 -203h-258l37 203h-125l-37 -203h-260l37 203h-115v250h162l24 131h-118zM492 1143l-25 -131h125l22 131h-122z" glyph-name="uniE909" horiz-adv-x="1556" unicode=""/><glyph d="M39 1317q0 125 87 213t214 88t214 -88t87 -213t-87 -213t-214 -88t-214 88t-87 213zM281 1316q0 -26 16 -42.5t42 -16.5t42 16.5t16 42.5t-16 42t-42 16t-42 -16t-16 -42zM831 831.5q0 126.5 87.5 214t213.5 87.5t214 -88.5t88 -213t-88.5 -213t-214.5 -88.5t-213 87.5 t-87 214zM1071 830q0 -26 17.5 -42t43.5 -16t42 16t16 42t-16.5 42.5t-42.5 16.5t-43 -16.5t-17 -42.5zM506 559h-313l782 1038h311z" glyph-name="uniE910" horiz-adv-x="1945" unicode=""/><glyph d="M59 559v201q119 47 125 143h-121v240h64q-23 61 -23 135q0 160 102 250t246 90t244.5 -82t100.5 -240v-22h-275v8q0 74 -70 74t-71 -70q0 -25 41 -143h227v-240h-192q-2 -20 -11 -61h334v-283h-721z" glyph-name="uniE911" horiz-adv-x="1314" unicode=""/><glyph d="M893 1202q-68 144 -250 144q-90 0 -170 -74h279v-182h-361v-33h305v-187h-207q76 -59 168 -59q168 0 236 141l258 -110q-68 -137 -201 -220t-296 -83t-301 92t-203 239h-103v187h59v33h-59v182h96q61 154 201.5 250t305.5 96t298 -82t203 -217z" glyph-name="uniE912" horiz-adv-x="1665" unicode=""/><glyph d="M258 0h-309l946 1597h309z" glyph-name="uniE999" horiz-adv-x="1624" unicode=""/><glyph d="M407.5 -70q75.5 0 128 -53t52.5 -143q0 -139 -250 -379l-117 113q67 84 86 113q2 3 -41 40.5t-43 119.5q0 81 54.5 135t130 54z" glyph-name="uniF6C3" horiz-adv-x="1099" unicode=""/><glyph d="M563 526h-272v138q-109 41 -175.5 133t-66.5 206.5t67.5 207t174.5 132.5v138h272v-138q133 -51 201 -176l-256 -114q-27 33 -66 33t-63.5 -25t-24.5 -59t24.5 -57t64.5 -23t67 30l254 -112q-63 -123 -201 -176v-138z" glyph-name="uniF6E0" horiz-adv-x="1275" unicode=""/><glyph d="M47 940h277v-2q0 -29 22.5 -52.5t74.5 -23.5t52 27q0 14 -16.5 23.5t-78.5 33.5q-121 46 -224 114t-103 193q0 90 60.5 156t162.5 92v129h269v-133q102 -31 162.5 -101.5t60.5 -170.5v-8h-277v2q0 25 -21.5 49t-67.5 24t-46 -26q0 -18 52 -38t102.5 -37t73 -26.5 t108.5 -60t86 -193.5q0 -93 -63.5 -163t-169.5 -95v-127h-269v131q-104 31 -165.5 101.5t-61.5 171.5v10z" glyph-name="uniF6E4" horiz-adv-x="1294" unicode=""/><glyph d="M635 479h-8q0 45 -33 72q18 -20 18 -55v-15q-32 2 -32 42t-28 69t-73 29t-72.5 -32t-27.5 -85t50 -90t138 -37q139 0 275.5 108.5t215.5 260t79 284.5q0 59 -37 98t-89 39t-90 -33.5t-38 -84.5q0 -106 118 -119q-31 -123 -59 -174q-27 209 -119 307q90 -119 107 -330 l-29 -41q0 156 -51 287t-131 172q-12 23 24 31l70 12q26 4 21 16.5t-15 18.5l-59 39q-35 31 6 47l63 28q32 9 23.5 21t-23.5 16l-63 27q-23 10 -21 29q12 6 15 16l35 61q10 18 21 17.5t15 -19.5l21 -67q14 -47 45 -10l47 53q12 16 22.5 13t12.5 -23l4 -72q2 -20 15.5 -25.5 t27.5 6.5l57 44q14 12 23.5 6t7.5 -27l-10 -70q-2 -20 10 -28t29 2l63 33q18 8 26.5 -0.5t0.5 -28.5l-23 -64q-6 -20 3.5 -30.5t27.5 -3.5l70 14q20 6 26 -2t-4 -27l-37 -59q-12 -16 -6 -29.5t27 -11.5l72 4q20 0 24 -10.5t-8 -24.5l-49 -53q-14 -14 -10 -27.5t24 -15.5 l70 -12q41 -10 6 -39l-57 -39q-16 -10 -15.5 -23.5t21.5 -21.5l63 -27q18 -8 18.5 -18.5t-18.5 -18.5l-63 -26q-18 -8 -20.5 -22.5t14.5 -24.5l57 -41q16 -10 15 -21.5t-21 -15.5l-70 -13q-20 -2 -24.5 -16t10.5 -29l49 -49q12 -14 8 -24.5t-24 -10.5l-72 4q-20 0 -26.5 -12 t5.5 -28l37 -62q10 -16 4 -25.5t-26 -5.5l-70 19q-18 6 -27.5 -5.5t-3.5 -29.5l23 -68q8 -18 0 -25t-27 1l-63 31q-16 10 -28.5 0.5t-10.5 -29.5l10 -68q2 -20 -6 -25t-25 7l-57 43q-16 12 -28.5 6t-14.5 -27l-4 -69q-2 -20 -12.5 -23.5t-22.5 10.5l-47 56q-33 33 -45 -10 l-21 -68q-4 -20 -16 -20.5t-20 16.5l-35 61q-20 41 -47 0l-31 -61q-8 -16 -20.5 -16.5t-16.5 20.5l-20 68q-12 43 -45 10l-48 -56q-29 -31 -34 13l-4 69q-2 20 -15.5 26.5t-29.5 -5.5l-54 -43q-16 -12 -26.5 -7t-6.5 25l11 68q2 20 -10.5 29.5t-30.5 -0.5l-62 -31 q-18 -8 -26 -1t0 25l22 68q8 18 -2 29.5t-28 5.5l-70 -19q-20 -4 -26.5 5.5t3.5 25.5l39 62q10 16 4 28t-26 12l-72 -4q-20 0 -24.5 10.5t8.5 24.5l51 49q12 14 8 28.5t-25 16.5l-67 13q-14 2 -24 11t16 26l57 41l12 12q18 16 37 -12l33 -64q10 -18 20.5 -16t16.5 20l18 70 q8 24 22.5 21t22.5 -13l47 -53q31 -31 35 12l4 70q9 44 43 18l58 -43q16 -12 25.5 -7t4.5 25l-8 70q-2 20 9.5 28.5t27.5 -1.5l64 -29q18 -8 26 -1t2 26l-22 67q-8 18 1 28.5t27 4.5l15 -2q41 -78 70.5 -203t29.5 -217q-29 -37 -94 -37zM614 336q141 0 276.5 107.5 t214.5 260t79 285.5q0 63 -41 101q25 -37 24 -84q0 -211 -174 -431q-188 -231 -401 -231q-59 0 -100 18q40 -26 122 -26z" glyph-name="uniF8FF" horiz-adv-x="1994" unicode=""/><glyph d="M985 930v-215h-237v-156h-293v156h-238v215h238v10l-25 39h-213v215h74l-260 403h344l227 -358l227 358h342l-260 -403h74v-215h-211l-26 -41v-8h237z" glyph-name="Euro.aalt" horiz-adv-x="1671"/></font>
</defs>
</svg>
